<svg xmlns="http://www.w3.org/2000/svg" viewBox="0 0 400 400" role="img" aria-label="Chladni resonance figure (mode 5,7)"><g fill="none" stroke="#2E7D46" stroke-width="2.2" stroke-linecap="round" stroke-linejoin="round"><path d="M78.4 354.6l1.2 -6.2l2 -4.9l3.7 -4.8l4.3 -3.3l4.6 -2.3l5.8 -1.9l20.6 -4.3l3.9 -1.5l3.2 -2.3l3.7 -5l6.5 -15.6l3.9 -7.3l4.4 -5.8l5.4 -4.5l7.9 -3.7l9 -2.1l11.5 -1l13.8 0.4l6 -76l1.4 -1.1l149.1 174.6"/><path d="M187.2 363.2l2.1 -27.7l1.3 -0.2l16.3 1.5l13.7 2l8.7 2l6.1 2.6l3.6 3.4l1.8 4.2l0.9 6.3l-0.2 10.1"/><path d="M295.9 371.7l-0.1 -6.3l-1.3 -5.2l-2.9 -5.2l-3.7 -4l-4.2 -3l-5.5 -2.8l-19.6 -7.4l-3.6 -2.1l-2.9 -2.8l-2.8 -5.5l-4 -16.5l-2.7 -7.8l-3.5 -6.4l-4.6 -5.3l-7.2 -4.9l-8.6 -3.5l-11.1 -2.7l-12.5 -1.6l-1.3 0.4l-4.4 56.1l-17.6 -1.1l-13.9 -0.3l-8.9 0.6l-6.4 1.7l-4 2.8l-2.5 3.8l-1.9 6.2l-1.4 10"/><path d="M28.3 295.9l6.3 -0.1l5.2 -1.3l5.2 -2.9l4 -3.7l3 -4.2l2.8 -5.5l7.4 -19.6l2.1 -3.6l2.8 -2.9l5.5 -2.8l16.5 -4l7.8 -2.7l6.4 -3.5l5.3 -4.6l4.9 -7.2l3.5 -8.6l2.7 -11.1l1.8 -13.8l76 6l1.3 -1.2l-149.1 -174.6"/><path d="M354.6 321.6l-6.2 -1.2l-4.9 -2l-4.8 -3.7l-3.3 -4.3l-2.3 -4.6l-1.9 -5.8l-4.3 -20.6l-1.5 -3.9l-2.3 -3.2l-5 -3.7l-15.6 -6.5l-7.3 -3.9l-5.8 -4.4l-4.5 -5.4l-3.7 -7.9l-2.1 -9l-1 -11.5l0.4 -13.8l-76 -6l-1.1 -1.4l-177.4 151.5"/><path d="M36.8 187.2l27.7 2.1l0.4 -1.2l1 -16.3l0.3 -13.9l-0.6 -8.9l-1.7 -6.4l-2.8 -4l-3.8 -2.5l-6.2 -1.9l-10 -1.4"/><path d="M363.2 212.8l-27.7 -2.1l-0.2 -1.3l1.5 -16.3l2 -13.7l2 -8.7l2.6 -6.1l3.4 -3.6l4.2 -1.8l6.3 -0.9l10.1 0.2"/><path d="M45.4 78.4l6.2 1.2l4.9 2l4.8 3.7l3.3 4.3l2.3 4.6l1.9 5.8l4.3 20.6l1.5 3.9l2.3 3.2l5 3.7l15.6 6.5l7.3 3.9l5.8 4.4l4.5 5.4l3.7 7.9l2.1 9l1 11.5l-0.4 12.6l-0.6 1.2l-56.1 -4.4l-1.6 17.5l-2 13.7l-2 8.7l-2.6 6.1l-3.4 3.6l-4.2 1.8l-6.3 0.9l-10.1 -0.2"/><path d="M371.7 104.1l-6.3 0.1l-5.2 1.3l-5.2 2.9l-4 3.7l-3 4.2l-2.8 5.5l-7.4 19.6l-2.1 3.6l-2.8 2.9l-5.5 2.8l-16.5 4l-7.8 2.7l-6.4 3.5l-5.3 4.6l-4.9 7.2l-3.5 8.6l-2.7 11.1l-1.6 12.5l0.4 1.3l56.1 4.4l-1.1 17.6l-0.3 13.9l0.6 8.9l1.7 6.4l2.8 4l3.8 2.5l6.2 1.9l10 1.4"/><path d="M104.1 28.3l0.1 6.3l1.3 5.2l2.9 5.2l3.7 4l4.2 3l5.5 2.8l19.6 7.4l3.6 2.1l2.9 2.8l2.8 5.5l4 16.5l2.7 7.8l3.5 6.4l4.6 5.3l7.2 4.9l8.6 3.5l11.1 2.7l13.8 1.8l-6 76l1.2 1.3l174.6 -149.1"/><path d="M212.8 36.8l-2.1 27.7l1.2 0.4l16.3 1l13.9 0.3l8.9 -0.6l6.4 -1.7l4 -2.8l2.5 -3.8l1.9 -6.2l1.4 -10"/><path d="M321.6 45.4l-1.2 6.2l-2 4.9l-3.7 4.8l-4.3 3.3l-4.6 2.3l-5.8 1.9l-20.6 4.3l-3.9 1.5l-3.2 2.3l-3.7 5l-6.5 15.6l-3.9 7.3l-4.4 5.8l-5.4 4.5l-7.9 3.7l-9 2.1l-11.5 1l-12.6 -0.4l-1.2 -0.6l4.4 -56.1l-17.5 -1.6l-13.7 -2l-8.7 -2l-6.1 -2.6l-3.6 -3.4l-1.8 -4.2l-0.9 -6.3l0.2 -10.1"/></g></svg>