<svg xmlns="http://www.w3.org/2000/svg" viewBox="0 0 400 400" role="img" aria-label="Chladni resonance figure (mode 5,6)"><g fill="none" stroke="#2E7D46" stroke-width="2.2" stroke-linecap="round" stroke-linejoin="round"><path d="M88 376l0.7 -6.8l1.8 -5.4l3.2 -5.4l4.8 -4.7l5.2 -3.4l5.6 -2.6l23.5 -8.3l4.8 -2.7l2.8 -2.4l2.7 -3.4l2.2 -3.6l9.9 -21.7l3.4 -5.4l3.5 -4.4l5.1 -5.1l5.7 -4.3l21.2 -11.9l7.3 -5.2l6.7 -7.8l13.2 -22.2l4 -5.5l4.5 -4.9l8.9 -7.2l20.9 -12.3l8.1 -6.4l6.5 -8.4l12.2 -21.7l4.1 -5.4l3.8 -4.1l4.5 -3.8l5.4 -3.6l6.8 -3.5l16.3 -7.2l3.6 -2.2l3.4 -2.7l3.2 -4l2.2 -4.1l7 -20.3l2.8 -6.8l3.2 -5.4l3 -3.7l4.1 -3.4l5.4 -2.8l5.4 -1.5l5.4 -0.4"/><path d="M216 376l0.5 -10.8l1.5 -8.2l2.3 -5l3.4 -3.1l4.7 -2l6.8 -1.4l31.1 -3.6l5.5 -1.7l2.7 -2.1l1.6 -2.7l1.5 -5.4l2.9 -21.7l2.1 -10l2.7 -6.7l4.1 -4.8l4.9 -2.9l5.9 -1.8l8.1 -1.6l21.7 -2.9l5.4 -1.5l2.7 -1.6l2.1 -2.7l1.7 -5.5l3.6 -31.1l1.4 -6.8l2 -4.7l3.1 -3.4l5 -2.3l8.2 -1.5l10.8 -0.5"/><path d="M344 376l0.6 -23l0.8 -4.1l1.8 -2.7l3.1 -1.2l4 -0.5l21.7 -0.5"/><path d="M24 312l6.8 -0.7l5.4 -1.8l5.4 -3.2l4.7 -4.8l3.4 -5.2l2.6 -5.6l8.3 -23.5l2.7 -4.8l2.4 -2.8l3.4 -2.7l3.6 -2.2l21.7 -9.9l5.4 -3.4l4.4 -3.5l5.1 -5.1l4.3 -5.7l11.9 -21.2l5.2 -7.3l7.8 -6.7l22.2 -13.2l5.5 -4l4.9 -4.5l7.2 -8.9l12.3 -20.9l6.4 -8.1l8.4 -6.5l21.7 -12.2l5.4 -4.1l4.1 -3.8l3.8 -4.5l3.6 -5.4l3.5 -6.8l7.2 -16.3l2.2 -3.6l2.7 -3.4l4 -3.2l4.1 -2.2l20.3 -7l6.8 -2.8l5.4 -3.2l3.7 -3l3.4 -4.1l2.8 -5.4l1.5 -5.4l0.4 -5.4"/><path d="M376 280l-12.2 0.3l-8.1 1l-5.4 1.9l-2.7 2.8l-1.7 4.7l-1 6.8l-2.1 37.9l-0.6 3l-1.4 2.4l-2.4 1.4l-3 0.6l-37.9 2.1l-6.8 1l-4.7 1.7l-2.8 2.7l-1.9 5.4l-1 8.1l-0.3 12.2"/><path d="M24 184l10.8 -0.5l8.2 -1.5l5 -2.3l3.1 -3.4l2 -4.7l1.4 -6.8l3.6 -31.1l1.7 -5.5l2.1 -2.7l2.7 -1.6l5.4 -1.5l21.7 -2.9l10 -2.1l6.7 -2.7l4.8 -4.1l2.9 -4.9l1.8 -5.9l1.6 -8.1l2.9 -21.7l1.5 -5.4l1.6 -2.7l2.7 -2.1l5.5 -1.7l31.1 -3.6l6.8 -1.4l4.7 -2l3.4 -3.1l2.3 -5l1.5 -8.2l0.5 -10.8"/><path d="M376 152l-9.5 0.7l-6.7 1.6l-5.5 2.8l-3.4 3.6l-2.2 4.1l-2.3 6.8l-5.6 28.4l-2.4 5.4l-2.4 2.7l-3.3 2.2l-4.1 1.6l-18.9 4.7l-8.2 2.7l-6.7 3.5l-5 4.3l-3.2 4.2l-2.6 5.3l-8.2 24.8l-2.3 4.9l-3.1 4.1l-3.4 2.7l-4.7 2.4l-20.3 6.4l-6.8 2.7l-5.4 3.1l-4.1 3.5l-3.7 4.9l-2.7 5.4l-2.7 8.2l-4.7 18.9l-2.3 5.4l-2.1 2.7l-3.4 2.5l-5.5 2l-23 4.3l-8 2.1l-5.5 2.4l-3.8 3l-2.8 4l-2 5.5l-1.2 6.7l-0.3 6.8"/><path d="M24 56l21.7 -0.5l4 -0.5l3.1 -1.2l1.8 -2.7l0.8 -4.1l0.6 -23"/><path d="M120 24l-0.3 12.2l-1 8.1l-1.9 5.4l-2.8 2.7l-4.7 1.7l-6.8 1l-37.9 2.1l-3 0.6l-2.4 1.4l-1.4 2.4l-0.6 3l-2.1 37.9l-1 6.8l-1.7 4.7l-2.7 2.8l-5.4 1.9l-8.1 1l-12.2 0.3"/><path d="M248 24l-0.3 6.8l-1.2 6.7l-2 5.5l-2.8 4l-3.8 3l-5.5 2.4l-8 2.1l-23 4.3l-5.5 2l-3.4 2.5l-2.1 2.7l-2.3 5.4l-4.7 18.9l-2.7 8.2l-2.7 5.4l-3.7 4.9l-4.1 3.5l-5.4 3.1l-6.8 2.7l-20.3 6.4l-4.7 2.4l-3.4 2.7l-3.1 4.1l-2.3 4.9l-8.2 24.8l-2.6 5.3l-3.2 4.2l-5 4.3l-6.7 3.5l-8.2 2.7l-18.9 4.7l-4.1 1.6l-3.3 2.2l-2.4 2.7l-2.4 5.4l-5.6 28.4l-2.3 6.8l-2.2 4.1l-3.4 3.6l-5.5 2.8l-6.7 1.6l-9.5 0.7"/><path d="M376 24l-352 352"/></g></svg>