<svg xmlns="http://www.w3.org/2000/svg" viewBox="0 0 400 400" role="img" aria-label="Chladni resonance figure (mode 3,7)"><g fill="none" stroke="#2E7D46" stroke-width="2.2" stroke-linecap="round" stroke-linejoin="round"><path d="M86.2 343.2l1.3 -7.1l2.1 -7l2.1 -4.6l3.2 -4.5l3.3 -2.9l4.4 -2.1l4.5 -1l6.1 0.1l5.9 1.3l6.9 2.9l6.7 4.4l5.5 4.9l4.9 6.1l3.6 6.5l1.7 6.4l0 4.8"/><path d="M179.5 355.5l7.7 -58.6l1.3 -0.3l12 1.1l11 0.2l8.6 -0.6l8.7 -1.5l7.6 -2.3l8.5 -3.6l7.1 -3.9l8 -5.7l1.3 -0.4l73.7 96.1"/><path d="M272.8 367.8l0.6 -7.2l-0.2 -7.3l-0.8 -5l-1.9 -5.1l-2.5 -3.7l-3.6 -3.2l-4.2 -2.1l-5.9 -1.5l-6 -0.3l-7.4 1l-7.7 2.5l-6.5 3.4l-6.3 4.6l-5.2 5.4l-3.3 5.6l-1.3 4.7"/><path d="M32.2 272.8l7.2 0.6l7.3 -0.2l5 -0.8l5.1 -1.9l3.7 -2.5l3.2 -3.6l2.1 -4.2l1.5 -5.9l0.3 -6l-1 -7.4l-2.5 -7.7l-3.4 -6.5l-4.6 -6.3l-5.4 -5.2l-5.6 -3.3l-4.7 -1.3"/><path d="M343.2 313.8l-7.1 -1.3l-7 -2.1l-4.6 -2.1l-4.5 -3.2l-2.9 -3.3l-2.1 -4.4l-1 -4.5l0.1 -6.1l1.3 -5.9l2.9 -6.9l4.4 -6.7l4.9 -5.5l6.1 -4.9l6.5 -3.6l6.4 -1.7l4.8 0"/><path d="M44.5 179.5l58.6 7.7l0.6 -1.1l2.1 -11.9l2.6 -10.6l2.8 -8.1l3.7 -8.1l4.2 -6.7l5.7 -7.3l5.6 -5.8l7.6 -6.4l0.7 -1.1l-73.7 -96.1"/><path d="M355.5 220.5l-58.6 -7.7l-0.3 -1.3l1.1 -12l0.2 -11l-0.6 -8.6l-1.5 -8.7l-2.3 -7.6l-3.6 -8.5l-3.9 -7.1l-5.7 -8l-0.4 -1.3l-78.5 60.3l1 1.3l94 12.4l-1.7 10.7l-2.5 10.7l-3 9.3l-3.5 8l-4 6.8l-5.1 6.8l-5.6 6.1l-9 7.7l-0.7 1.1l-60.3 -78.5l-1.3 1l-12.4 94l-10.7 -1.7l-10.7 -2.5l-9.3 -3l-8 -3.5l-6.8 -4l-6.8 -5.1l-6.1 -5.6l-7.7 -9l-1.1 -0.7l-96.1 73.7"/><path d="M56.8 86.2l7.1 1.3l7 2.1l4.6 2.1l4.5 3.2l2.9 3.3l2.1 4.4l1 4.5l-0.1 6.1l-1.3 5.9l-2.9 6.9l-4.4 6.7l-4.9 5.5l-6.1 4.9l-6.5 3.6l-6.4 1.7l-4.8 0"/><path d="M367.8 127.2l-7.2 -0.6l-7.3 0.2l-5 0.8l-5.1 1.9l-3.7 2.5l-3.2 3.6l-2.1 4.2l-1.5 5.9l-0.3 6l1 7.4l2.5 7.7l3.4 6.5l4.6 6.3l5.4 5.2l5.6 3.3l4.7 1.3"/><path d="M127.2 32.2l-0.6 7.2l0.2 7.3l0.8 5l1.9 5.1l2.5 3.7l3.6 3.2l4.2 2.1l5.9 1.5l6 0.3l7.4 -1l7.7 -2.5l6.5 -3.4l6.3 -4.6l5.2 -5.4l3.3 -5.6l1.3 -4.7"/><path d="M220.5 44.5l-7.7 58.6l1.1 0.6l11.9 2.1l10.6 2.6l8.1 2.8l8.1 3.7l6.7 4.2l7.3 5.7l5.8 5.6l6.4 7.6l1.1 0.7l96.1 -73.7"/><path d="M313.8 56.8l-1.3 7.1l-2.1 7l-2.1 4.6l-3.2 4.5l-3.3 2.9l-4.4 2.1l-4.5 1l-6.1 -0.1l-5.9 -1.3l-6.9 -2.9l-6.7 -4.4l-5.5 -4.9l-4.9 -6.1l-3.6 -6.5l-1.7 -6.4l0 -4.8"/><path d="M120.1 261.3l81.3 -62.3l-1.1 -1.4l12.4 -94l-10.8 -1.1l-10.9 -0.4l-9.8 0.5l-8.7 1.3l-7.6 2.1l-7.8 3.2l-7.4 3.8l-9.7 6.7l-1.3 0.4l60.3 78.5l-1.4 1.1l-94 -12.4l-1.1 10.8l-0.4 10.9l0.5 9.8l1.3 8.7l2.1 7.6l3.2 7.8l3.8 7.4l6.7 9.7l0.4 1.3"/></g></svg>