<svg xmlns="http://www.w3.org/2000/svg" viewBox="0 0 400 400" role="img" aria-label="Chladni resonance figure (mode 2,7)"><g fill="none" stroke="#2E7D46" stroke-width="2.2" stroke-linecap="round" stroke-linejoin="round"><path d="M134.1 366.9l-3.2 -15.4l-2.4 -7l-2.8 -6l-3.1 -5.3l-4.4 -5.8l-8.4 -8.1l-1.2 -0.2l-43.6 56.9"/><path d="M203.2 357.8l0.4 -3.7l2.4 -5.2l5.5 -8l7.1 -8.8l6.4 -6.8l5.5 -4.8l4.5 -2.8l4.6 -1.5l4.9 0l5.1 1.7l5.3 3.2l5.5 4.7l4.8 5.6l3.4 5.6l2.4 5.8l1.3 5.9"/><path d="M313.8 343.2l-2.1 -8.2l-8.4 -22l-3 -11.8l-1.4 -8.3l-0.5 -7.3l0.5 -4.9l1.4 -3.1l2.2 -2.2l4.5 -2.2l7.1 -1.6l8.4 -0.9l13.4 -0.1l23.4 2.4l8.5 -0.2"/><path d="M371.4 300.5l-4.6 1.3l-5.7 3.4l-5.4 4.9l-5.3 6.2l-4.5 6.9l-3.1 6.5l-1.3 5l-0.1 4.9"/><path d="M55.9 306.9l15.7 -0.9l7.3 0.5l6.5 1.1l5.9 1.6l6.8 2.8l10 6l0.5 1.1l70.6 -92l-1.2 0l-6.8 -5.7l-11.8 -11.2l-7.2 -8.8l-5.2 -9l-2.6 -8.2l-0.3 -8.5l1.8 -7.5l3.7 -6.6l5.7 -5.6l6.8 -3.8l8.2 -1.8l8.6 0.4l10.1 2.6l10.4 4.7l13.8 8.5l7.2 5.2l0.4 1.1l48.8 -63.6l21.8 -28.4l-1.2 -0.2l-8.4 -8.1l-4.4 -5.8l-3.1 -5.3l-2.8 -6l-2.4 -7l-3.2 -15.4"/><path d="M362.4 231.4l-6.1 0.2l-6.2 -0.8l-6.3 -1.8l-6.7 -3.2l-6 -4.1l-4.4 -4.3l-2.9 -4.5l-1.3 -4.7l0.3 -4.9l1.5 -5.1l3.2 -6.5l4.9 -7.9l6.7 -9.2l6.3 -7.4l4.4 -3.7l3.4 -1.3"/><path d="M46.8 237.8l3.4 -1.3l4.4 -3.7l6.3 -7.4l6.7 -9.2l4.9 -7.9l3.2 -6.5l1.5 -5.1l0.3 -4.9l-1.3 -4.7l-2.9 -4.5l-4.4 -4.3l-6 -4.1l-6.7 -3.2l-6.3 -1.8l-6.2 -0.8l-6.1 0.2"/><path d="M351.4 148.4l-2.4 0l-3.8 -1.1l-24.8 -12.7l-7.7 -2.8l-6.3 -1.5l-7.3 -0.4l-5.9 1.2l-4.6 2.6l-3.3 4l-2 5.1l-1 6.2l0 8.5l1.1 9.6l3.9 16.5l8.9 23.2l1.4 8.3l-0.7 7.4l-4 20l-2.4 18.6l-1.6 5.1l-3.1 3.4l-4.5 2.6l-19.6 8.1l-16 8l-5.8 2l-8.4 0.9l-18.6 -2.2l-8.6 -0.5l-16.9 0.8l-9.5 1.7l-8.2 2.6l-5.7 3.1l-3.6 3.4l-2.4 5.2l-0.5 5l1 5.9l2.3 5.8l3.2 5.7l4.9 6.6l17.8 19.6l2 3.4l0.7 2.3"/><path d="M32.2 127.2l8.5 -0.2l23.4 2.4l12.2 -0.1l8.4 -0.8l7.1 -1.4l4.7 -1.8l2.6 -2.1l1.6 -2.7l0.9 -4.9l-0.3 -7.3l-1.3 -8.3l-3.3 -13l-8.4 -22l-2.1 -8.2"/><path d="M58.6 60.4l-0.1 4.9l-1.8 6.3l-3.3 6.5l-4.7 6.7l-5.5 6.2l-5.4 4.6l-4.6 2.6l-4.6 1.3"/><path d="M127.7 51.3l1.3 5.9l2.4 5.8l3.4 5.6l4.8 5.6l5.5 4.7l5.3 3.2l5.1 1.7l4.9 0l4.6 -1.5l4.5 -2.8l5.5 -4.8l6.4 -6.8l7.1 -8.8l5.5 -8l2.4 -5.2l0.4 -3.7"/><path d="M210.6 40.4l0.7 2.3l2 3.4l17.8 19.6l4.9 6.6l3.2 5.7l2.3 5.8l1 5.9l-0.5 5l-2.4 5.2l-3.6 3.4l-5.7 3.1l-8.2 2.6l-9.5 1.7l-16.9 0.8l-8.6 -0.5l-18.6 -2.2l-8.4 0.9l-5.8 2l-16 8l-19.6 8.1l-4.5 2.6l-3.1 3.4l-1.6 5.1l-2.4 18.6l-4 20l-0.7 7.4l1.4 8.3l8.9 23.2l3.9 16.5l1.1 9.6l0 8.5l-1 6.2l-2 5.1l-3.3 4l-4.6 2.6l-5.9 1.2l-7.3 -0.4l-6.3 -1.5l-7.7 -2.8l-24.8 -12.7l-3.8 -1.1l-2.4 0"/><path d="M335 24l-43.6 56.9l0.5 1.1l10 6l6.8 2.8l5.9 1.6l6.5 1.1l7.3 0.5l15.7 -0.9"/><path d="M223.6 249.5l7.3 -0.1l5.9 -1.2l5.7 -2.7l4.4 -3.3l4.3 -4.8l2.9 -5.5l1.5 -5.1l0.5 -6.2l-0.8 -6l-1.8 -5.8l-2.8 -5.7l-3.7 -5.6l-5.6 -6.9l-7.1 -7.1l-12.3 -10.6l-1.2 0l-41.6 54.2l0.4 1.1l7.2 5.2l15.2 9.1l11.5 4.9l10.1 2.1"/></g></svg>