<svg xmlns="http://www.w3.org/2000/svg" viewBox="0 0 400 400" role="img" aria-label="Chladni resonance figure (mode 5,6)"><g fill="none" stroke="#C03A78" stroke-width="2.2" stroke-linecap="round" stroke-linejoin="round"><path d="M127.4 367.3l-0.3 -6l0.7 -4.9l2.1 -5.1l3.5 -4.8l4 -3.6l4.5 -3l19.2 -10.3l3.7 -3l2.1 -2.5l3.3 -6.8l5.6 -20l4.6 -9.4l3.7 -5.1l4.3 -4.5l16.7 -13.2l5.5 -5.5l4.8 -7.6l8.3 -21l6 -10.1l6.6 -7.5l16.4 -13.4l6.1 -6.6l4.5 -8.2l7.6 -20.4l5.5 -9.2l7.6 -7.8l18.4 -12.4l5.4 -5.2l2.2 -3.9l1.3 -3.8l3.3 -18.5l1.5 -6.3l2 -5.1l2.1 -3.6l3 -3.5l4.3 -3.1l4.5 -2l4.6 -1.2"/><path d="M237.9 349.7l-1.1 -9.4l0.2 -7.2l1.3 -4.6l2.5 -3.2l3.8 -2.4l5.7 -2.1l26.4 -7.4l4.4 -2.2l2.1 -2.2l1 -2.5l0.6 -4.9l-0.2 -26.3l0.8 -5.3l1.7 -4.7l3.6 -4.2l5.4 -3.2l8.4 -3.2l18.3 -5.5l4.5 -2l2.1 -1.8l1.4 -2.6l0.8 -4.9l-1.2 -27.4l0.3 -6l1.1 -4.4l2.2 -3.4l4 -2.7l6.8 -2.3l9.3 -2"/><path d="M348.4 332.2l-2.6 -19.9l0.1 -3.6l1.2 -2.6l2.5 -1.5l3.4 -1l18.6 -3.4"/><path d="M63.4 320.8l5.7 -1.6l4.5 -2.2l4.2 -3.6l3.4 -4.7l2.2 -5.1l1.5 -5.1l3.9 -21.5l1.7 -4.4l1.7 -2.8l5.4 -5.2l17.4 -11.5l7.5 -7.3l3.7 -5.1l2.9 -5.5l7.4 -20l3.5 -6.9l5.8 -6.9l17.4 -14.4l7.8 -8.8l5 -8.6l7.7 -19.7l4.4 -7.9l6.4 -6.8l17.1 -13.5l7.1 -8.1l5 -9.6l6.1 -21.3l3.3 -6.8l3 -3.3l3.2 -2.4l16.6 -8.8l5.5 -3.4l4.2 -3.5l2.8 -3.1l2.4 -4l1.7 -5l0.5 -4.9l-0.4 -4.8"/><path d="M362.9 245l-10.5 2l-6.9 1.9l-4.4 2.4l-1.9 2.8l-0.9 4.3l0.1 5.9l3.4 33.1l-0.2 2.6l-0.8 2.3l-1.9 1.5l-2.5 0.9l-32.4 7.1l-5.7 1.7l-3.8 2.1l-2.1 2.8l-0.9 4.9l0.3 7.1l1.3 10.6"/><path d="M45.9 210.3l9.3 -2l6.8 -2.3l4 -2.7l2.2 -3.4l1.1 -4.4l0.3 -6l-1.2 -27.4l0.8 -4.9l1.4 -2.6l2.1 -1.8l4.5 -2l18.3 -5.5l8.4 -3.2l5.4 -3.2l3.6 -4.2l1.7 -4.7l0.8 -5.3l-0.2 -26.3l0.6 -4.9l1 -2.5l2.1 -2.2l4.4 -2.2l26.4 -7.4l5.7 -2.1l3.8 -2.4l2.5 -3.2l1.3 -4.6l0.2 -7.2l-1.1 -9.4"/><path d="M345.4 134.5l-8.1 1.9l-5.6 2.3l-4.3 3.2l-2.5 3.6l-1.4 3.8l-1 6.1l-1 25.3l-1.3 5.1l-1.6 2.6l-2.7 2.3l-3.2 2l-15.8 6.7l-6.6 3.4l-5.4 4l-3.6 4.3l-2.2 4.1l-1.6 4.9l-3.7 22.6l-1.3 4.5l-2.1 3.9l-2.6 2.9l-3.7 2.6l-16.7 8.3l-5.4 3.3l-4.3 3.4l-3 3.6l-2.6 4.8l-1.6 5l-1.2 7.4l-1.5 17l-1.2 5l-1.5 2.6l-2.6 2.6l-4.4 2.5l-19.2 6.8l-6.7 2.9l-4.4 2.9l-2.9 3.1l-1.9 3.9l-1 4.9l0 6l0.6 5.9"/><path d="M28.4 99.8l18.6 -3.4l3.4 -1l2.5 -1.5l1.2 -2.6l0.1 -3.6l-2.6 -19.9"/><path d="M106.9 59l1.3 10.6l0.3 7.1l-0.9 4.9l-2.1 2.8l-3.8 2.1l-5.7 1.7l-32.4 7.1l-2.5 0.9l-1.9 1.5l-0.8 2.3l-0.2 2.6l3.4 33.1l0.1 5.9l-0.9 4.3l-1.9 2.8l-4.4 2.4l-6.9 1.9l-10.5 2"/><path d="M217.4 41.5l0.6 5.9l0 6l-1 4.9l-1.9 3.9l-2.9 3.1l-4.4 2.9l-6.7 2.9l-19.2 6.8l-4.4 2.5l-2.6 2.6l-1.5 2.6l-1.2 5l-1.5 17l-1.2 7.4l-1.6 5l-2.6 4.8l-3 3.6l-4.3 3.4l-5.4 3.3l-16.7 8.3l-3.7 2.6l-2.6 2.9l-2.1 3.9l-1.3 4.5l-3.7 22.6l-1.6 4.9l-2.2 4.1l-3.6 4.3l-5.4 4l-6.6 3.4l-15.8 6.7l-3.2 2l-2.7 2.3l-1.6 2.6l-1.3 5.1l-1 25.3l-1 6.1l-1.4 3.8l-2.5 3.6l-4.3 3.2l-5.6 2.3l-8.1 1.9"/><path d="M327.9 24l-255.8 352"/></g></svg>