<svg xmlns="http://www.w3.org/2000/svg" viewBox="0 0 400 400" role="img" aria-label="Chladni resonance figure (mode 2,3)"><g fill="none" stroke="#C03A78" stroke-width="2.2" stroke-linecap="round" stroke-linejoin="round"><path d="M193.7 356.7l-0.8 -7l0 -7.2l0.8 -7.3l1.5 -6.2l2.4 -6.4l2.9 -5.3l3.9 -5.4l3.9 -4.2l9.2 -7.4l11.7 -6.9l11.1 -5.2l27.1 -10.8l9.7 -4.5l6.8 -4.6l4.1 -4.4l2.9 -5.2l2.2 -7.9l1.3 -10.6l2 -29.1l1.5 -12.2l2.9 -13.2l4.2 -11.1l2.8 -5l3.9 -5.4l4.1 -4.3l5.4 -4.3l5.4 -3.3l6.7 -3.1l6.9 -2.2l6.9 -1.5"/><path d="M366.4 267.1l-18.6 3.6l-14.9 4.3l-5.6 2.4l-4.4 2.6l-3.2 2.5l-2.7 3.2l-2.1 3.9l-1.2 3.8l-1.3 9.8l0.5 15.5l2.3 18.8"/><path d="M52.9 254.5l6.9 -1.5l6.9 -2.2l6.7 -3.1l5.4 -3.3l5.4 -4.3l4.1 -4.3l3.9 -5.4l2.8 -5l4.2 -11.1l2.9 -13.2l1.5 -12.2l2 -29.1l1.3 -10.6l2.2 -7.9l2.9 -5.2l4.1 -4.4l6.8 -4.6l9.7 -4.5l27.1 -10.8l11.1 -5.2l11.7 -6.9l9.2 -7.4l3.9 -4.2l3.9 -5.4l2.9 -5.3l2.4 -6.4l1.5 -6.2l0.8 -7.3l0 -7.2l-0.8 -7"/><path d="M84.8 62.5l2.3 18.8l0.5 15.5l-0.5 6.1l-1.1 4.9l-1.5 3.9l-2.2 3.5l-3 3.2l-3.3 2.4l-8.9 4.2l-14.9 4.3l-18.6 3.6"/><path d="M327.9 24l-255.8 352"/></g></svg>