<svg xmlns="http://www.w3.org/2000/svg" viewBox="0 0 400 400" role="img" aria-label="Chladni resonance figure (mode 2,3)"><g fill="none" stroke="#B1832F" stroke-width="2.2" stroke-linecap="round" stroke-linejoin="round"><path d="M151.4 355.9l1.1 -7.3l2 -7.2l2.8 -7.2l3.1 -5.8l4.2 -5.8l4.3 -4.5l5.4 -4.4l5 -3.2l11.3 -5l13.6 -3.7l12.6 -2.2l30.1 -3.6l11 -2l8.1 -2.7l5.3 -3.3l4.3 -4.5l4.3 -7.3l4.2 -10.4l9.8 -28.7l4.8 -11.9l6.5 -12.4l7.2 -10l4.2 -4.3l5.4 -4.4l5.3 -3.2l6.5 -2.9l6.4 -1.9l7.5 -1.2l7.5 -0.4l7.4 0.4"/><path d="M349.2 312.3l-19.7 -1.4l-16.1 0.3l-10.1 1.9l-3.9 1.5l-3.9 2.4l-3.2 2.9l-2.5 3.5l-2.4 4.7l-2.2 6l-3.7 15.7l-2.7 19.5"/><path d="M37.4 215.1l7.4 0.4l7.5 -0.4l7.5 -1.2l6.4 -1.9l6.5 -2.9l5.3 -3.2l5.4 -4.4l4.2 -4.3l7.2 -10l6.5 -12.4l4.8 -11.9l9.8 -28.7l4.2 -10.4l4.3 -7.3l4.3 -4.5l5.3 -3.3l8.1 -2.7l11 -2l30.1 -3.6l12.6 -2.2l13.6 -3.7l11.3 -5l5 -3.2l5.4 -4.4l4.3 -4.5l4.2 -5.8l3.1 -5.8l2.8 -7.2l2 -7.2l1.1 -7.3"/><path d="M121.2 30.7l-2.7 19.5l-3.7 15.7l-2.2 6l-2.4 4.7l-2.5 3.5l-3.2 2.9l-3.9 2.4l-3.9 1.5l-10.1 1.9l-16.1 0.3l-19.7 -1.4"/><path d="M376 57.5l-352 285"/></g></svg>