<svg xmlns="http://www.w3.org/2000/svg" viewBox="0 0 400 400" role="img" aria-label="Chladni resonance figure (mode 2,4)"><g fill="none" stroke="#2E7D46" stroke-width="2.2" stroke-linecap="round" stroke-linejoin="round"><path d="M173.4 360l-1 -11.9l0.8 -10.9l2.8 -10l4.6 -7.9l6.1 -6.3l7.7 -4.9l10.1 -4.1l11.5 -2.7l11.9 -1l10.9 0.8l8.7 2.3l7.9 4.1l6.7 6.1l5.8 8.6l4.1 10.2l2.7 11.5"/><path d="M376 327.9l-176 -127.9l-127.9 176"/><path d="M56.1 274.7l11.5 -2.7l10.2 -4.1l8.6 -5.8l6.1 -6.7l4.1 -7.9l2.3 -8.7l0.8 -10.9l-1 -11.9l-2.7 -11.5l-4.1 -10.1l-5.8 -8.7l-6.7 -6.1l-7.9 -4.1l-8.7 -2.3l-10.9 -0.8l-11.9 1"/><path d="M343.9 125.3l-11.5 2.7l-10.2 4.1l-8.6 5.8l-6.1 6.7l-4.1 7.9l-2.3 8.7l-0.8 10.9l1 11.9l2.7 11.5l4.1 10.1l4.9 7.7l6.3 6.1l7.9 4.6l10 2.8l10.9 0.8l11.9 -1"/><path d="M24 72.1l176 127.9l127.9 -176"/><path d="M226.6 40l1 11.9l-0.8 10.9l-2.8 10l-4.6 7.9l-6.1 6.3l-7.7 4.9l-10.1 4.1l-11.5 2.7l-11.9 1l-10.9 -0.8l-10 -2.8l-7.9 -4.5l-6.3 -6.2l-4.9 -7.6l-4.1 -10.2l-2.7 -11.5"/></g></svg>