<svg xmlns="http://www.w3.org/2000/svg" viewBox="0 0 400 400" role="img" aria-label="Chladni resonance figure (mode 4,5)"><g fill="none" stroke="#2E7D46" stroke-width="2.2" stroke-linecap="round" stroke-linejoin="round"><path d="M96.5 356l1 -6.2l2.2 -6.1l2.9 -4.9l4.4 -4.7l5.7 -4l6.6 -3l8.7 -2.7l20.9 -5l6.6 -2.7l3.9 -2.6l3.4 -3.4l3.3 -4.8l8.8 -17l5 -8.4l4.6 -6l4.5 -4.6l5.9 -4.6l6.6 -4l26.2 -11.1l5.2 -2.8l4 -2.8l4.1 -3.9l3.5 -4.4l11.7 -19.2l5 -7.2l5.4 -6.2l6.8 -5.6l10.6 -5.9l7.8 -3.1l17.6 -5.7l4.7 -2.2l3.7 -2.4l3.5 -3.3l3.3 -4.8l12.3 -28.1l3.5 -6.1l3.9 -4.8l5.4 -4.6l6.6 -3.2l6.4 -1.5l7.6 -0.2"/><path d="M241.5 367.4l1.7 -13.7l2.2 -8.6l3 -5.4l3.8 -3l5.4 -1.7l6.3 -0.7l39.2 0l5.1 -0.5l3.9 -1.3l2.1 -2.3l1.8 -4.9l6.1 -38.7l2.3 -8.6l2.5 -5l3.5 -3.4l5.8 -2.1l8.8 -0.8l13.9 0.5"/><path d="M353.2 339.7l-23.9 -1.1l-5.1 0.5l-3.9 1.7l-2.3 3.6l-1.3 5l-2.6 23.7"/><path d="M29.7 277.8l6.3 0l6.4 -1.2l5.2 -2.1l5.4 -3.6l4.8 -5.1l4 -6l4.1 -8.2l8.2 -19.8l3.6 -6.1l3.2 -3.5l3.9 -2.8l5.3 -2.5l18.1 -6l9.1 -3.7l6.6 -3.5l5.4 -3.8l5.4 -5l5 -6l15.1 -24.1l3.5 -4.7l3.5 -3.5l4.4 -3.5l4.9 -2.7l20.9 -8.6l7.8 -3.8l6.9 -4.4l6.7 -5.8l7.5 -9.5l4.2 -7.2l8.5 -16.5l2.8 -4.4l3 -3.3l3.8 -2.9l5.3 -2.5l29.6 -7.7l6.5 -2.6l5.5 -3l5.3 -4.7l4.3 -5.9l2.4 -6.2l1.4 -7.4"/><path d="M364.6 194.7l-10.1 -0.2l-8.9 1.3l-6.2 2.5l-4.5 4l-2.8 4.5l-2.9 7.2l-8.7 33.4l-2.4 4.8l-3.3 3.6l-3.1 1.7l-5.2 1.4l-23 3l-10.2 2.1l-8.1 3l-6.4 4.7l-3.8 4.6l-3.4 6.3l-3.5 9.6l-6.6 22.4l-2.2 4.7l-3 3.5l-3.7 2.3l-4.7 1.3l-34.3 3.4l-7.5 1.7l-4.9 2.1l-4.6 3.9l-3.5 5.6l-2.7 8.6l-1.4 10"/><path d="M41.1 132.8l13.9 0.5l8.8 -0.8l5.8 -2.1l3.5 -3.4l2.5 -5l2.3 -8.6l6.1 -38.7l1.8 -4.9l2.1 -2.3l3.9 -1.3l5.1 -0.5l39.2 0l6.3 -0.7l5.4 -1.7l3.8 -3l3 -5.4l2.2 -8.6l1.7 -13.7"/><path d="M85.9 26.9l-2.6 23.7l-1.3 5l-2.3 3.6l-3.9 1.7l-5.1 0.5l-23.9 -1.1"/><path d="M231 38.3l-1.4 10l-2.7 8.6l-3.5 5.6l-4.6 3.9l-4.9 2.1l-7.5 1.7l-34.3 3.4l-4.7 1.3l-3.7 2.3l-3 3.5l-2.2 4.7l-6.6 22.4l-3.5 9.6l-3.4 6.3l-3.8 4.6l-6.4 4.7l-8.1 3l-10.2 2.1l-23 3l-5.2 1.4l-3.1 1.7l-3.3 3.6l-2.4 4.8l-8.7 33.4l-2.9 7.2l-2.8 4.5l-4.5 4l-6.2 2.5l-8.9 1.3l-10.1 -0.2"/><path d="M376 49.7l-352 300.6"/></g></svg>