<svg xmlns="http://www.w3.org/2000/svg" viewBox="0 0 400 400" role="img" aria-label="Chladni resonance figure (mode 3,6)"><g fill="none" stroke="#2E7D46" stroke-width="2.2" stroke-linecap="round" stroke-linejoin="round"><path d="M93.1 344.1l1.8 -8.2l2.7 -7l3.4 -5.4l4.2 -4.1l5.2 -3.1l6.4 -1.9l7.4 -0.7l8.4 0.5l7.1 1.4l7 2.6l5.7 3.4l4.3 4.1l3.2 5.3l2 6.4l0.8 7.4l-0.5 8.5"/><path d="M300.5 371.4l1.4 -7.1l2.5 -6.9l3.2 -5.7l4.5 -4.7l5.3 -3.2l6.3 -2l7.4 -0.8l8.5 0.4"/><path d="M33.1 265.9l8.5 0.5l7.4 -0.8l6.1 -1.9l5.1 -3l4.3 -4.3l3.5 -5.6l2.6 -7l1.7 -8.3l0.4 -7.2l-0.7 -7.4l-1.8 -6.3l-2.9 -5.3l-4.2 -4.5l-5.7 -3.6l-6.9 -2.7l-8.3 -1.7"/><path d="M357.8 203.2l-8.3 -1.7l-6.9 -2.7l-5.7 -3.6l-4.2 -4.5l-2.9 -5.3l-1.8 -6.3l-0.7 -7.4l0.4 -7.2l1.7 -8.3l2.6 -7l3.5 -5.6l4.3 -4.3l5.1 -3l6.1 -1.9l7.4 -0.8l8.5 0.5"/><path d="M60.4 58.6l7.2 0.4l7.4 -0.5l6.3 -1.7l5.7 -3.1l4.5 -4.3l3.6 -5.6l2.7 -7l1.7 -8.2"/><path d="M237.8 46.7l-0.5 8.5l0.8 7.4l2 6.4l3.2 5.3l4.3 4.1l5.7 3.4l7 2.6l7.1 1.4l8.4 0.5l7.4 -0.7l6.4 -1.9l5.2 -3.1l4.2 -4.1l3.4 -5.4l2.7 -7l1.8 -8.2"/><path d="M376 65l-117.8 90.3l1.2 0.4l89.2 116.2l-0.5 1.1l-115.9 88.9l-1.2 0.3l-89.1 -116.3l-0.1 -1.2l-117.8 90.3"/><path d="M235.3 292.3l7.2 1.2l7.2 0.2l6.2 -0.7l6.4 -1.9l3.9 -2.1l4.1 -3.5l3.1 -4l3 -5.7l2.4 -8.2l1.2 -8.4l-0.1 -7.3l-1.4 -7.5l-2.1 -5.1l-4.1 -5.4l-4.5 -3.7l-5.7 -2.9l-8.2 -2.5l-8.3 -1.1l-7.4 0.1l-7.4 1.4l-5.8 2.4l-4.8 3.7l-3.8 4.9l-2.9 5.7l-2.4 8.2l-1.1 9.6l0.5 8.6l2.1 7.6l3.1 5.3l4.6 4.6l6.8 3.9l8.2 2.6"/><path d="M140.6 244.3l1.2 0.4l116.4 -89.4l-0.1 -1.2l-89.1 -116.3l-1.2 0.3l-115.9 88.9l-0.5 1.1l89.2 116.2"/><path d="M142.5 174.3l-8.1 -3.2l-5.5 -3.8l-4.3 -4.9l-2.8 -6l-1.7 -8.3l0.1 -9.7l1.8 -9.5l3.2 -8.1l3.1 -4.7l4.2 -4.1l5.2 -3.1l6.4 -1.9l7.4 -0.7l8.4 0.5l8.3 1.8l7 2.8l5 3.2l4.1 4.2l3.1 5.3l1.9 6.3l0.7 7.4l-0.5 8.5l-1.8 8.3l-2.8 6.9l-2.8 4.5l-3.7 3.9l-4 2.8l-5.2 2.1l-6.2 1.3l-6.1 0.3l-7.3 -0.6l-7.1 -1.5"/></g></svg>