<svg xmlns="http://www.w3.org/2000/svg" viewBox="0 0 400 400" role="img" aria-label="Chladni resonance figure (mode 3,7)"><g fill="none" stroke="#2E7D46" stroke-width="2.2" stroke-linecap="round" stroke-linejoin="round"><path d="M92.6 368.8l0.6 -7.9l1.5 -7.9l1.8 -5.2l2.9 -5.2l3.2 -3.6l4.6 -2.8l4.8 -1.6l6.6 -0.5l6.6 0.7l7.8 2.3l7.9 4l6.4 4.8l6.1 6l4.6 6.7l2.7 6.7l0.5 5.3"/><path d="M195.5 371.5l1.7 -64.6l1.3 -0.5l13.2 -0.2l12 -1.1l9.2 -1.6l9.3 -2.6l8.1 -3.3l8.8 -5l7.3 -5l8.1 -7.1l1.3 -0.6l91.2 96.1"/><path d="M298.4 374.2l-0.2 -7.9l-1 -8l-1.5 -5.3l-2.7 -5.3l-3 -3.8l-4.4 -3l-4.7 -1.8l-6.6 -0.9l-6.6 0.3l-8 2l-8 3.5l-6.7 4.4l-6.4 5.8l-5 6.4l-3 6.5l-0.8 5.3"/><path d="M25.8 298.4l7.9 -0.2l8 -1l5.3 -1.5l5.3 -2.7l3.8 -3l3 -4.4l1.8 -4.7l0.9 -6.6l-0.3 -6.6l-2 -8l-3.5 -8l-4.4 -6.7l-5.8 -6.4l-6.4 -5l-6.5 -3l-5.3 -0.8"/><path d="M368.8 307.4l-7.9 -0.6l-7.9 -1.5l-5.2 -1.8l-5.2 -2.9l-3.6 -3.2l-2.8 -4.6l-1.6 -4.8l-0.5 -6.6l0.7 -6.6l2.3 -7.8l4 -7.9l4.8 -6.4l6 -6.1l6.7 -4.6l6.7 -2.7l5.3 -0.5"/><path d="M28.5 195.5l64.6 1.7l0.6 -1.3l0.9 -13.2l1.6 -11.8l2.1 -9.2l3.2 -9.2l3.7 -7.8l5.4 -8.6l5.4 -6.9l7.5 -7.8l0.7 -1.3l-91.2 -96.1"/><path d="M371.5 204.5l-64.6 -1.7l-0.5 -1.3l-0.2 -13.2l-1.1 -12l-1.6 -9.2l-2.6 -9.3l-3.3 -8.1l-5 -8.8l-5 -7.3l-7.1 -8.1l-0.6 -1.3l-78.5 74.5l1.2 1.4l103.7 2.7l-0.6 11.8l-1.5 11.9l-2.2 10.5l-2.9 9.2l-3.6 7.8l-4.7 7.9l-5.5 7.3l-8.8 9.4l-0.7 1.3l-74.5 -78.5l-1.4 1.2l-2.7 103.7l-11.8 -0.6l-11.9 -1.5l-10.5 -2.2l-9.2 -2.9l-7.8 -3.6l-7.9 -4.7l-7.3 -5.5l-9.4 -8.8l-1.3 -0.7l-96.1 91.2"/><path d="M31.2 92.6l7.9 0.6l7.9 1.5l5.2 1.8l5.2 2.9l3.6 3.2l2.8 4.6l1.6 4.8l0.5 6.6l-0.7 6.6l-2.3 7.8l-4 7.9l-4.8 6.4l-6 6.1l-6.7 4.6l-6.7 2.7l-5.3 0.5"/><path d="M374.2 101.6l-7.9 0.2l-8 1l-5.3 1.5l-5.3 2.7l-3.8 3l-3 4.4l-1.8 4.7l-0.9 6.6l0.3 6.6l2 8l3.5 8l4.4 6.7l5.8 6.4l6.4 5l6.5 3l5.3 0.8"/><path d="M101.6 25.8l0.2 7.9l1 8l1.5 5.3l2.7 5.3l3 3.8l4.4 3l4.7 1.8l6.6 0.9l6.6 -0.3l8 -2l8 -3.5l6.7 -4.4l6.4 -5.8l5 -6.4l3 -6.5l0.8 -5.3"/><path d="M204.5 28.5l-1.7 64.6l1.3 0.6l13.2 0.9l11.8 1.6l9.2 2.1l9.2 3.2l7.8 3.7l8.6 5.4l6.9 5.4l7.8 7.5l1.3 0.7l96.1 -91.2"/><path d="M307.4 31.2l-0.6 7.9l-1.5 7.9l-1.8 5.2l-2.9 5.2l-3.2 3.6l-4.6 2.8l-4.8 1.6l-6.6 0.5l-6.6 -0.7l-7.8 -2.3l-7.9 -4l-6.4 -4.8l-6.1 -6l-4.6 -6.7l-2.7 -6.7l-0.5 -5.3"/><path d="M120.1 275.8l81.3 -77.1l-1.3 -1.3l2.7 -103.7l-11.9 0l-11.9 0.8l-10.6 1.7l-9.3 2.5l-8 3.1l-8.2 4.3l-7.6 5.1l-9.8 8.3l-1.3 0.6l74.5 78.5l-1.3 1.3l-103.7 -2.7l0 11.9l0.8 11.9l1.7 10.6l2.5 9.3l3.1 8l4.3 8.2l5.1 7.6l8.3 9.8l0.6 1.3"/></g></svg>