<svg xmlns="http://www.w3.org/2000/svg" viewBox="0 0 400 400" role="img" aria-label="Chladni resonance figure (mode 2,4)"><g fill="none" stroke="#2E7D46" stroke-width="2.2" stroke-linecap="round" stroke-linejoin="round"><path d="M153 370.2l0.3 -13l2.1 -11.7l1.7 -5.2l2.5 -5.3l5.8 -8l7.4 -6.2l8.8 -4.4l11.4 -3.3l12.8 -1.6l13 0.2l11.7 2.1l9.2 3.5l8 5.3l6.6 7.4l3 5l2.3 5.1l3.3 11.4l1.6 12.8"/><path d="M376 358.5l-176 -158.5l-158.5 176"/><path d="M35.7 264.5l12.8 -1.6l11.4 -3.3l5.1 -2.3l5 -3l7.4 -6.6l5.3 -8l3.5 -9.2l2.1 -11.7l0.2 -13l-1.6 -12.8l-3.3 -11.4l-2.3 -5l-3 -5.1l-6.6 -7.3l-8 -5.3l-9.2 -3.5l-11.7 -2.1l-13 -0.3"/><path d="M364.3 135.5l-12.8 1.6l-11.4 3.3l-5.1 2.3l-5 3l-7.4 6.6l-5.3 8l-3.5 9.2l-2.1 11.7l-0.2 13l1.6 12.8l3.3 11.4l4.4 8.8l6.2 7.4l8 5.8l5.3 2.5l5.2 1.7l11.7 2.1l13 0.3"/><path d="M24 41.5l176 158.5l158.5 -176"/><path d="M247 29.8l-0.3 13l-2.1 11.7l-1.7 5.2l-2.5 5.3l-5.8 8l-7.4 6.2l-8.8 4.4l-11.4 3.3l-12.8 1.6l-13 -0.2l-11.7 -2.1l-5.2 -1.8l-5.3 -2.4l-8 -5.8l-6.2 -7.5l-4.4 -8.8l-3.3 -11.4l-1.6 -12.8"/></g></svg>