<svg xmlns="http://www.w3.org/2000/svg" viewBox="0 0 400 400" role="img" aria-label="Chladni resonance figure (mode 3,6)"><g fill="none" stroke="#C03A78" stroke-width="2.2" stroke-linecap="round" stroke-linejoin="round"><path d="M128.3 368.6l-0.3 -8.7l1 -7.5l2.1 -6.2l3.2 -5.1l4.5 -4.3l5.9 -3.4l7.1 -2.5l8.5 -1.5l7.4 -0.2l7.6 0.8l6.4 2l5.3 3.2l4.4 4.4l3.5 5.9l2.6 7.1l1.5 8.5"/><path d="M340.6 346.2l-0.2 -8.6l1 -7.5l2.2 -6.5l3.4 -5.3l4.9 -4.4l5.9 -3.2l7.2 -2.3l7.3 -1.3"/><path d="M50 305.2l8.5 -1.5l7.2 -2.6l5.6 -3.3l4.4 -4.2l3.2 -5.3l2.1 -6.4l1 -7.6l-0.3 -8.6l-1.3 -7.3l-2.4 -7.2l-3.3 -5.8l-4.2 -4.5l-5.3 -3.5l-6.4 -2.2l-7.6 -1l-8.6 0.2"/><path d="M357.4 165.6l-8.6 0.2l-7.6 -1l-6.4 -2.2l-5.3 -3.5l-4.2 -4.5l-3.3 -5.8l-2.4 -7.2l-1.3 -7.3l-0.3 -8.6l1 -7.6l2.1 -6.4l3.2 -5.3l4.4 -4.2l5.6 -3.3l7.2 -2.6l8.5 -1.5"/><path d="M27.7 92.9l8.5 -1.6l7.2 -2.5l5.8 -3.6l4.5 -4.4l3.3 -5.7l1.9 -6.4l0.8 -7.5l-0.3 -7.4"/><path d="M201 38.9l1.5 8.5l2.6 7.1l3.5 5.9l4.4 4.4l5.3 3.2l6.4 2l7.6 0.8l7.4 -0.2l8.5 -1.5l7.1 -2.5l5.9 -3.4l4.5 -4.3l3.2 -5.1l2.1 -6.2l1 -7.5l-0.3 -8.7"/><path d="M342.5 24l-95.4 117.8l1.3 0.1l116.3 94.1l-0.3 1.2l-93.8 115.9l-1.2 0.5l-116.2 -94.2l-0.3 -1.2l-95.4 117.8"/><path d="M257.1 283.2l7.3 -0.5l7.3 -1.6l6 -2.1l5.8 -3.4l3.4 -3.1l3.2 -4.4l2.2 -4.7l1.6 -6.4l0.5 -8.7l-0.9 -8.6l-1.8 -7.2l-3.2 -7.1l-3.3 -4.6l-5.3 -4.4l-5.4 -2.5l-6.3 -1.6l-8.7 -0.5l-8.6 0.9l-7.3 1.8l-7.1 3.2l-5.1 3.8l-3.9 4.8l-2.6 5.8l-1.5 6.3l-0.4 8.7l1.2 9.8l2.5 8.4l3.9 7l4.3 4.5l5.7 3.5l7.7 2.3l8.8 0.6"/><path d="M151.6 258.1l1.3 0.1l94.2 -116.4l-0.3 -1.2l-116.2 -94.2l-1.2 0.5l-93.8 115.9l-0.3 1.2l116.3 94.1"/><path d="M136.8 188.2l-8.8 -1.3l-6.4 -2.4l-5.4 -3.9l-4.3 -5.2l-3.6 -7.9l-2.2 -9.7l-0.4 -9.8l1.2 -8.8l1.9 -5.4l3.2 -5.1l4.5 -4.3l5.8 -3.4l7.2 -2.5l8.5 -1.4l8.7 -0.2l7.5 1.1l5.8 2l5.1 3.2l4.3 4.5l3.4 5.8l2.5 7.2l1.5 8.5l0.2 8.6l-1.1 7.6l-1.8 5.1l-2.7 4.8l-3.3 3.7l-4.6 3.3l-5.9 2.8l-6.1 1.7l-7.3 1.2l-7.4 0.2"/></g></svg>