<svg xmlns="http://www.w3.org/2000/svg" viewBox="0 0 400 400" role="img" aria-label="Chladni resonance figure (mode 2,6)"><g fill="none" stroke="#2E7D46" stroke-width="2.2" stroke-linecap="round" stroke-linejoin="round"><path d="M103.6 350.9l8.1 -77.2l1.4 -1.1l70.2 86.7l86.6 -70.2l1.2 0.1l0.2 -1.2l-156.8 -16.5l-1.1 -1.3l-89.4 72.3"/><path d="M342.5 376l-70.1 -86.6l-1.4 1.1l-8.1 77.1"/><path d="M32.4 262.9l77.1 8.1l1.4 -1.1l-70.2 -86.6"/><path d="M359.3 216.7l-86.7 70.2l-1.1 -1.4l16.2 -154.3l1.4 -1.1l70.2 86.6"/><path d="M40.7 183.3l86.7 -70.2l0.1 -1.2l1.2 0.1l-16.4 156.8l1.1 1.4l86.6 -70.2l-70.2 -86.6l0.2 -1.3l-1.3 -0.1l8.4 -79.6"/><path d="M367.6 137.1l-77.1 -8.1l-1.1 -1.4l-89.4 72.4l70.2 86.6l1.2 0.2l-0.1 1.2l79.6 8.4"/><path d="M57.5 24l70.1 86.6l-1.3 1.1l-77.2 -8.1"/><path d="M296.4 49.1l-8.1 77.2l1.1 1.3l86.6 -70.1"/><path d="M131.2 112.3l154.3 16.2l1.4 -1.1l-70.2 -86.7l-86.6 70.2l1.1 1.4"/></g></svg>