<svg xmlns="http://www.w3.org/2000/svg" viewBox="0 0 400 400" role="img" aria-label="Chladni resonance figure (mode 2,7)"><g fill="none" stroke="#2E7D46" stroke-width="2.2" stroke-linecap="round" stroke-linejoin="round"><path d="M128.3 368.6l-2.9 -15.8l-2.2 -7.2l-2.7 -6.2l-3 -5.5l-4.4 -6l-8.3 -8.6l-1.3 -0.2l-46 56.9"/><path d="M199 361.1l0.5 -3.7l2.6 -5.3l5.8 -8l7.6 -8.8l6.7 -6.8l5.7 -4.7l4.6 -2.7l4.8 -1.5l5 0.2l5.2 1.8l5.3 3.4l5.4 5l4.8 5.8l3.4 5.9l2.2 5.9l1.2 6.1"/><path d="M312.3 349.2l-1.9 -8.5l-8 -22.7l-3 -13.3l-1.1 -8.5l-0.1 -7.4l1 -5l1.7 -2.7l2.8 -2.1l4.7 -1.7l7.3 -1.3l8.7 -0.6l12.4 0.3l23.8 3.1l8.7 0"/><path d="M372.3 307.1l-4.8 1.2l-4.7 2.5l-5.7 4.6l-5.8 6.2l-4.9 6.7l-3.6 6.6l-2 6.4l-0.2 4.9"/><path d="M50 305.2l16.1 -0.5l7.5 0.7l6.6 1.3l6 1.9l6.8 3l10.1 6.3l0.4 1.2l11 -13.5l63.6 -78.5l-1.3 -0.1l-6.8 -5.9l-11.7 -11.8l-7.1 -9.1l-5.1 -9.4l-2.4 -8.4l-0.1 -8.7l2 -7.6l4 -6.6l5.9 -5.6l7.1 -3.6l8.5 -1.7l8.7 0.6l10.2 3l10.5 5.1l13.9 9l7.2 5.4l0.3 1.2l74.6 -92l-1.3 -0.2l-8.3 -8.6l-4.4 -6l-3 -5.5l-2.7 -6.2l-2.2 -7.2l-2.9 -15.8"/><path d="M364.8 236.4l-6.1 0.1l-6.3 -1l-6.4 -2.1l-6.8 -3.4l-6 -4.4l-4.4 -4.5l-2.8 -4.6l-1.2 -4.8l0.4 -5l1.7 -5.2l3.4 -6.5l5.2 -8l7.1 -9.2l6.6 -7.4l4.6 -3.6l3.6 -1.3"/><path d="M42.6 234.5l3.6 -1.3l4.6 -3.6l6.6 -7.4l7.1 -9.2l5.2 -8l3.4 -6.5l1.7 -5.2l0.4 -5l-1.2 -4.8l-2.8 -4.6l-4.4 -4.5l-6 -4.4l-6.8 -3.4l-6.4 -2.1l-6.3 -1l-6.1 0.1"/><path d="M355.9 151.4l-2.5 -0.1l-3.8 -1.2l-25 -13.6l-7.7 -3.1l-6.4 -1.7l-7.5 -0.6l-6.1 1.1l-4.7 2.5l-3.5 4l-2.2 5.1l-1.1 6.4l-0.3 8.6l0.9 9.9l1.4 8.5l2.1 8.4l8.5 23.9l1.2 8.6l-0.9 7.5l-4.6 20.3l-2.9 18.9l-1.9 5.1l-3.2 3.5l-4.7 2.4l-20.2 7.8l-16.5 7.7l-6 2l-8.6 0.6l-18.9 -2.7l-8.7 -0.8l-8.7 -0.1l-8.6 0.5l-9.8 1.5l-8.4 2.4l-5.9 3l-3.7 3.4l-2.7 5.3l-0.6 5l0.9 6.1l2.1 6l3.1 5.8l4.9 6.9l17.6 20.5l2 3.5l0.6 2.4"/><path d="M30.7 121.2l8.7 0l23.8 3.1l12.4 0.3l8.7 -0.6l7.3 -1.3l4.7 -1.7l2.8 -2.1l1.7 -2.7l1 -5l-0.1 -7.4l-1.1 -8.5l-3 -13.3l-8 -22.7l-1.9 -8.5"/><path d="M59.4 53.8l-0.2 4.9l-2 6.4l-3.6 6.6l-4.9 6.7l-5.8 6.2l-5.7 4.6l-4.7 2.5l-4.8 1.2"/><path d="M130.2 46.3l1.2 6.1l2.2 5.9l3.4 5.9l4.8 5.8l5.4 5l5.3 3.4l5.2 1.8l5 0.2l4.8 -1.5l4.6 -2.7l5.7 -4.7l6.7 -6.8l7.6 -8.8l5.8 -8l2.6 -5.3l0.5 -3.7"/><path d="M215.1 37.4l0.6 2.4l2 3.5l17.6 20.5l4.9 6.9l3.1 5.8l2.1 6l0.9 6.1l-0.6 5l-2.7 5.3l-3.7 3.4l-5.9 3l-8.4 2.4l-9.8 1.5l-8.6 0.5l-8.7 -0.1l-8.7 -0.8l-18.9 -2.7l-8.6 0.6l-6 2l-16.5 7.7l-20.2 7.8l-4.7 2.4l-3.2 3.5l-1.9 5.1l-2.9 18.9l-4.6 20.3l-0.9 7.5l1.2 8.6l8.5 23.9l2.1 8.4l1.4 8.5l0.9 9.9l-0.3 8.6l-1.1 6.4l-2.2 5.1l-3.5 4l-4.7 2.5l-6.1 1.1l-7.5 -0.6l-6.4 -1.7l-7.7 -3.1l-25 -13.6l-3.8 -1.2l-2.5 -0.1"/><path d="M342.5 24l-46 56.9l0.4 1.2l10.1 6.3l6.8 3l6 1.9l6.6 1.3l7.5 0.7l16.1 -0.5"/><path d="M222.7 251.2l7.5 0.1l6 -1.2l6 -2.5l4.6 -3.2l4.4 -4.9l3.2 -5.5l1.6 -5.2l0.7 -6.3l-0.6 -6.1l-1.8 -6l-2.7 -5.9l-3.6 -5.8l-5.5 -7.2l-7 -7.4l-12.3 -11.1l-1.3 -0.1l-43.8 54.2l0.3 1.2l7.2 5.4l15.3 9.8l11.7 5.3l10.1 2.4"/></g></svg>