<svg xmlns="http://www.w3.org/2000/svg" viewBox="0 0 400 400" role="img" aria-label="Chladni resonance figure (mode 5,7)"><g fill="none" stroke="#2E7D46" stroke-width="2.2" stroke-linecap="round" stroke-linejoin="round"><path d="M116.8 369.2l-0.2 -6.1l1 -5l2.5 -5.2l3.4 -4l3.8 -3l5.1 -3l18.4 -8.1l3.4 -2.2l2.6 -2.8l2.4 -5.4l3 -16l2.2 -7.6l3 -6.3l4.2 -5.3l6.6 -5l8 -3.8l10.6 -3.1l13.1 -2.4l-9.6 -72.5l1.1 -1.4l174.6 134"/><path d="M220.5 355.5l-3.5 -26.3l1.2 -0.5l28.8 -2.7l8.6 0.1l6.2 1.3l4 2.5l2.5 3.5l2.2 5.8l1.8 9.5"/><path d="M324.2 341.9l-1.5 -5.9l-2.2 -4.6l-3.7 -4.4l-4.3 -3l-4.5 -1.9l-5.7 -1.5l-19.9 -3.1l-3.8 -1.3l-3.2 -2l-3.8 -4.6l-7.1 -14.6l-4 -6.8l-4.6 -5.4l-5.4 -4l-7.7 -3.1l-8.7 -1.6l-11 -0.3l-12 0.9l-1.2 0.7l7.1 53.4l-16.7 2.5l-13.1 2.6l-8.2 2.3l-5.7 2.8l-3.2 3.5l-1.5 4l-0.6 6.2l0.6 9.7"/><path d="M58.1 324.2l5.9 -1.5l4.6 -2.2l4.4 -3.7l3 -4.3l1.9 -4.5l1.5 -5.7l3.1 -19.9l1.3 -3.8l2 -3.2l4.6 -3.8l14.6 -7.1l6.8 -4l5.4 -4.6l4 -5.4l3.1 -7.7l1.6 -8.7l0.3 -11l-1.1 -13.2l72.5 -9.6l1 -1.3l-174.6 -134"/><path d="M369.2 283.2l-6.1 0.2l-5 -1l-5.2 -2.5l-4 -3.4l-3 -3.8l-3 -5.1l-8.1 -18.4l-2.2 -3.4l-2.8 -2.6l-5.4 -2.4l-16 -3l-7.6 -2.2l-6.3 -3l-5.3 -4.2l-5 -6.6l-3.8 -8l-3.1 -10.6l-2.4 -13.1l-72.5 9.6l-1.4 -1.1l-136 177.4"/><path d="M44.5 220.5l26.3 -3.5l0.2 -1.2l-4.9 -28.6l-2.3 -8.2l-2.8 -5.7l-3.5 -3.2l-4 -1.5l-6.2 -0.6l-9.7 0.6"/><path d="M355.5 179.5l-26.3 3.5l-0.5 -1.2l-2.7 -28.8l0.1 -8.6l1.3 -6.2l2.5 -4l3.5 -2.5l5.8 -2.2l9.5 -1.8"/><path d="M30.8 116.8l6.1 -0.2l5 1l5.2 2.5l4 3.4l3 3.8l3 5.1l8.1 18.4l2.2 3.4l2.8 2.6l5.4 2.4l16 3l7.6 2.2l6.3 3l5.3 4.2l5 6.6l3.8 8l3.1 10.6l2.3 11.9l-0.4 1.2l-53.4 7.1l1.9 16.7l0.9 13.3l-0.1 8.6l-1.3 6.2l-2.5 4l-3.5 2.5l-5.8 2.2l-9.5 1.8"/><path d="M341.9 75.8l-5.9 1.5l-4.6 2.2l-4.4 3.7l-3 4.3l-1.9 4.5l-1.5 5.7l-3.1 19.9l-1.3 3.8l-2 3.2l-4.6 3.8l-14.6 7.1l-6.8 4l-5.4 4.6l-4 5.4l-3.1 7.7l-1.6 8.7l-0.3 11l0.9 12l0.7 1.2l53.4 -7.1l2.5 16.7l2.6 13.1l2.3 8.2l2.8 5.7l3.5 3.2l4 1.5l6.2 0.6l9.7 -0.6"/><path d="M75.8 58.1l1.5 5.9l2.2 4.6l3.7 4.4l4.3 3l4.5 1.9l5.7 1.5l19.9 3.1l3.8 1.3l3.2 2l3.8 4.6l7.1 14.6l4 6.8l4.6 5.4l5.4 4l7.7 3.1l8.7 1.6l11 0.3l13.2 -1.1l9.6 72.5l1.3 1l134 -174.6"/><path d="M179.5 44.5l3.5 26.3l1.2 0.2l28.6 -4.9l8.2 -2.3l5.7 -2.8l3.2 -3.5l1.5 -4l0.6 -6.2l-0.6 -9.7"/><path d="M283.2 30.8l0.2 6.1l-1 5l-2.5 5.2l-3.4 4l-3.8 3l-5.1 3l-18.4 8.1l-3.4 2.2l-2.6 2.8l-2.4 5.4l-3 16l-2.2 7.6l-3 6.3l-4.2 5.3l-6.6 5l-8 3.8l-10.6 3.1l-11.9 2.3l-1.2 -0.4l-7.1 -53.4l-16.7 1.9l-13.3 0.9l-8.6 -0.1l-6.2 -1.3l-4 -2.5l-2.5 -3.5l-2.2 -5.8l-1.8 -9.5"/></g></svg>