<svg xmlns="http://www.w3.org/2000/svg" viewBox="0 0 400 400" role="img" aria-label="Chladni resonance figure (mode 3,5)"><g fill="none" stroke="#B1832F" stroke-width="2.2" stroke-linecap="round" stroke-linejoin="round"><path d="M125.1 371.6l0.1 -6.4l0.7 -5.2l2.8 -9.2l2.1 -4l3.2 -4.1l3.6 -3.5l4.7 -3.3l10.4 -4.8l14 -3.9l17.9 -2.9l21.8 -1.8l2.4 44.7"/><path d="M292.4 362.9l-0.7 -6.5l-1.2 -5.1l-3.8 -8.8l-2.6 -3.7l-3.5 -3.8l-4 -3.1l-5 -2.8l-10.9 -3.7l-14.3 -2.4l-16.8 -1l-23.2 0.2l-6.3 -119.6l1.3 -1.4l174.6 157.3"/><path d="M37.1 292.4l6.5 -0.7l5.1 -1.2l8.8 -3.8l3.7 -2.6l3.8 -3.5l3.1 -4l2.8 -5l3.7 -10.9l2.4 -14.3l1 -18.1l-0.5 -21.9l-44.7 2.4"/><path d="M371.6 274.9l-6.4 -0.1l-5.2 -0.7l-9.2 -2.8l-4 -2.1l-4.1 -3.2l-3.5 -3.6l-3.3 -4.7l-4.8 -10.4l-3.9 -14l-2.9 -17.9l-1.8 -21.8l44.7 -2.4"/><path d="M28.4 125.1l6.4 0.1l5.2 0.7l9.2 2.8l4 2.1l4.1 3.2l3.5 3.6l3.3 4.7l4.8 10.4l3.9 14l2.7 16.6l2.3 23.1l119.6 -6.3l1.2 -1.3l-174.6 -157.3"/><path d="M362.9 107.6l-6.5 0.7l-5.1 1.2l-8.8 3.8l-3.7 2.6l-3.8 3.5l-3.1 4l-2.8 5l-3.7 10.9l-2.4 14.3l-1 16.8l0.2 23.2l-119.6 6.3l-1.4 -1.3l-159.7 177.4"/><path d="M107.6 37.1l0.7 6.5l1.2 5.1l3.8 8.8l2.6 3.7l3.5 3.8l4 3.1l5 2.8l10.9 3.7l14.3 2.4l18.1 1l21.9 -0.5l-2.4 -44.7"/><path d="M274.9 28.4l-0.1 6.4l-0.7 5.2l-2.8 9.2l-2.1 4l-3.2 4.1l-3.6 3.5l-4.7 3.3l-10.4 4.8l-14 3.9l-16.6 2.7l-23.1 2.3l6.3 119.6l1.3 1.2l157.3 -174.6"/></g></svg>