<svg xmlns="http://www.w3.org/2000/svg" viewBox="0 0 400 400" role="img" aria-label="Chladni resonance figure (mode 6,7)"><g fill="none" stroke="#2E7D46" stroke-width="2.2" stroke-linecap="round" stroke-linejoin="round"><path d="M78.2 376l0.5 -5.4l1.2 -4.1l2.1 -4l2.2 -2.7l3.4 -3.1l5.4 -3.2l21.7 -7.9l4.1 -2.1l3.4 -2.7l3.9 -5.4l9 -19l3.6 -5.4l3.1 -3.7l8.1 -6.9l17.6 -10.3l6.8 -5.1l5.4 -6.3l10.1 -16.4l6.1 -8l8.2 -7.4l18.9 -12.3l6.8 -5.7l5.4 -6.7l10.8 -16.9l6.8 -7.9l8.1 -6.7l16.3 -9.9l6.7 -5.4l5.5 -6.7l11 -18.8l6.6 -7.8l4 -3.4l5.4 -3.6l19 -9l5.4 -3.9l2.7 -3.4l2.1 -4.1l7.9 -21.7l2.2 -4l3.3 -4.1l3.5 -2.9l4 -2.1l4.1 -1.2l5.4 -0.5"/><path d="M186.5 376l0.3 -8.1l1 -6.2l1.8 -4.7l2.2 -2.7l4.1 -2.3l5.5 -1.4l27 -3.7l4.1 -1.4l2.7 -2l1.6 -2.7l1.1 -3.2l4.8 -25.2l2.1 -5.4l2.6 -3.9l3.5 -2.9l4.6 -2.3l6.8 -2l17.9 -3.8l5.1 -2.1l2.7 -2l2 -2.7l2.1 -5.1l5.4 -23.4l1.6 -4l2.7 -4.1l3.8 -3.2l5.4 -2.4l8.1 -2l18.5 -3.2l3.2 -1.1l2.7 -1.6l2 -2.7l1.4 -4.1l3.4 -25.7l1.3 -5.6l1.7 -3.9l3.7 -3.6l4.1 -1.6l6.8 -1.2l8.1 -0.3"/><path d="M294.8 376l0.8 -17.6l1.1 -4.1l2.2 -2.7l3.8 -1.3l5.6 -0.7l33.9 -1.5l2.9 -0.5l1.9 -1.4l0.9 -2.7l0.4 -4.1l1.4 -32.4l0.9 -5.5l1 -2.6l2.7 -2.2l4.1 -1.1l17.6 -0.8"/><path d="M376 348.9l-17.6 0.3l-6.8 1.1l-1.3 1.4l-0.9 4l-0.5 20.3"/><path d="M24 321.8l5.4 -0.5l4.1 -1.2l4 -2.1l3.5 -2.9l3.3 -4.1l2.2 -4l7.9 -21.7l2.1 -4.1l2.7 -3.4l5.4 -3.9l19 -9l5.4 -3.6l4 -3.4l6.6 -7.8l11 -18.8l5.5 -6.7l6.7 -5.4l16.3 -9.9l8.1 -6.7l6.8 -7.9l10.8 -16.9l5.4 -6.7l6.8 -5.7l18.9 -12.3l8.2 -7.4l6.1 -8l10.1 -16.4l5.4 -6.3l6.8 -5.1l17.6 -10.3l8.1 -6.9l3.1 -3.7l3.6 -5.4l9 -19l3.9 -5.4l3.4 -2.7l4.1 -2.1l21.7 -7.9l5.4 -3.2l3.4 -3.1l2.2 -2.7l2.1 -4l1.2 -4.1l0.5 -5.4"/><path d="M376 240.6l-9.5 0.3l-6.7 0.9l-4.4 1.5l-2.9 2.7l-1.6 4.1l-1 5.4l-2.3 28.7l-0.9 3.8l-1.7 2.7l-2.8 1.6l-4.1 0.9l-20.3 2l-8.1 1.2l-5.5 1.7l-2.7 1.6l-2.7 3.2l-2.1 5.4l-1.4 8.1l-2.1 21.7l-0.9 4.1l-1.5 2.7l-2.8 1.8l-3.8 0.9l-28.7 2.3l-5.4 1l-4.1 1.6l-2.7 2.9l-1.5 4.4l-0.9 6.7l-0.3 9.5"/><path d="M24 213.5l8.1 -0.3l6.2 -1l4.7 -1.8l2.7 -2.2l2.3 -4.1l1.4 -5.5l3.7 -27l1.4 -4.1l2 -2.7l2.7 -1.6l3.2 -1.1l25.2 -4.8l5.4 -2.1l3.9 -2.6l2.9 -3.5l2.3 -4.6l2 -6.8l3.8 -17.9l2.1 -5.1l2 -2.7l2.7 -2l5.1 -2.1l23.4 -5.4l4 -1.6l4.1 -2.7l3.2 -3.8l2.4 -5.4l2 -8.1l3.2 -18.5l1.1 -3.2l1.6 -2.7l2.7 -2l4.1 -1.4l25.7 -3.4l5.6 -1.3l3.9 -1.7l3.6 -3.7l1.6 -4.1l1.2 -6.8l0.3 -8.1"/><path d="M376 132.3l-8.1 0.6l-5.4 1.3l-4.1 2.1l-3 2.8l-2.4 4l-1.8 5.5l-5.2 24.3l-1.9 4.1l-1.9 2.3l-2.8 1.9l-4 1.6l-20.3 5.9l-4.2 1.8l-4.3 2.7l-4.1 4.1l-3.4 5.4l-8.3 21.7l-2.2 4l-2.1 2.7l-3.1 2.7l-3.5 2.1l-21.8 8.8l-4.4 2.7l-3.6 3.1l-3 3.7l-2.5 4l-8.7 21.7l-2.1 3.5l-2.7 3.1l-2.7 2.1l-4 2.2l-21.7 8.3l-4.2 2.4l-3.9 3.5l-2.7 3.5l-2.7 5.2l-2.4 6.8l-4.4 16.1l-2.1 4.2l-2 2.3l-2.7 1.8l-5.4 1.9l-24.4 5.2l-5.2 2.3l-2.9 2.3l-2.3 3.2l-1.6 4l-1.1 5.4l-0.4 6.8"/><path d="M24 105.2l17.6 -0.8l4.1 -1.1l2.7 -2.2l1.3 -3.8l0.7 -5.6l1.5 -33.9l0.5 -2.9l1.4 -1.9l2.7 -0.9l4.1 -0.4l32.4 -1.4l5.5 -0.9l2.6 -1l2.2 -2.7l1.1 -4.1l0.8 -17.6"/><path d="M51.1 24l-0.5 20.3l-0.9 4l-1.3 1.4l-6.8 1.1l-17.6 0.3"/><path d="M159.4 24l-0.3 9.5l-0.9 6.7l-1.5 4.4l-2.7 2.9l-4.1 1.6l-5.4 1l-28.7 2.3l-3.8 0.9l-2.7 1.7l-1.6 2.8l-0.9 4.1l-2 20.3l-1.2 8.1l-1.7 5.5l-1.6 2.7l-3.2 2.7l-5.4 2.1l-8.1 1.4l-21.7 2.1l-4.1 0.9l-2.7 1.5l-1.8 2.8l-0.9 3.8l-2.3 28.7l-1 5.4l-1.6 4.1l-2.9 2.7l-4.4 1.5l-6.7 0.9l-9.5 0.3"/><path d="M267.7 24l-0.6 8.1l-1.3 5.4l-2.1 4.1l-2.8 3l-4 2.4l-5.5 1.8l-24.3 5.2l-4.1 1.9l-2.3 1.9l-1.9 2.8l-1.6 4l-5.9 20.3l-1.8 4.2l-2.7 4.3l-4.1 4.1l-5.4 3.4l-21.7 8.3l-4 2.2l-2.7 2.1l-2.7 3.1l-2.1 3.5l-8.8 21.8l-2.7 4.4l-3.1 3.6l-3.7 3l-4 2.5l-21.7 8.7l-3.5 2.1l-3.1 2.7l-2.1 2.7l-2.2 4l-8.3 21.7l-2.4 4.2l-3.5 3.9l-3.5 2.7l-5.2 2.7l-6.8 2.4l-16.1 4.4l-4.2 2.1l-2.3 2l-1.8 2.7l-1.9 5.4l-5.2 24.4l-2.3 5.2l-2.3 2.9l-3.2 2.3l-4 1.6l-5.4 1.1l-6.8 0.4"/><path d="M376 24l-352 352"/></g></svg>