<svg xmlns="http://www.w3.org/2000/svg" viewBox="0 0 400 400" role="img" aria-label="Chladni resonance figure (mode 3,6)"><g fill="none" stroke="#B1832F" stroke-width="2.2" stroke-linecap="round" stroke-linejoin="round"><path d="M96.5 356l1.4 -8.7l2.4 -7.4l3.3 -5.8l4.1 -4.6l5.3 -3.4l6.5 -2.4l7.7 -1.1l8.8 0.1l7.5 1.1l7.4 2.3l6.1 3.2l4.7 4.1l3.7 5.3l2.4 6.5l1.3 7.7l-0.1 8.8"/><path d="M314.1 373.1l1 -7.4l2.2 -7.5l3.1 -6l4.4 -5.1l5.4 -3.7l6.5 -2.4l7.6 -1.3l8.9 0"/><path d="M29.7 277.8l8.8 0l7.7 -1.2l6.3 -2.3l5.1 -3.4l4.3 -4.7l3.3 -6.1l2.4 -7.4l1.3 -8.7l0 -7.6l-1.1 -7.7l-2.2 -6.4l-3.3 -5.4l-4.7 -4.4l-6.1 -3.4l-7.4 -2.5l-8.7 -1.3"/><path d="M364.6 194.7l-8.7 -1.3l-7.4 -2.5l-6.1 -3.4l-4.7 -4.4l-3.3 -5.4l-2.2 -6.4l-1.1 -7.7l0 -7.6l1.3 -8.7l2.4 -7.4l3.3 -6.1l4.3 -4.7l5.1 -3.4l6.3 -2.3l7.7 -1.2l8.8 0"/><path d="M46.8 60.3l8.9 0l7.6 -1.3l6.5 -2.4l5.4 -3.7l4.4 -5.1l3.1 -6l2.2 -7.5l1 -7.4"/><path d="M231 38.3l-0.1 8.8l1.3 7.7l2.4 6.5l3.7 5.3l4.7 4.1l6.1 3.2l7.4 2.3l7.5 1.1l8.8 0.1l7.7 -1.1l6.5 -2.4l5.3 -3.4l4.1 -4.6l3.3 -5.8l2.4 -7.4l1.4 -8.7"/><path d="M376 49.7l-117.8 100.6l1.3 0.3l99.3 116.2l-0.5 1.2l-115.9 98.9l-1.3 0.4l-99.2 -116.3l-0.1 -1.3l-117.8 100.6"/><path d="M241.8 294.2l7.5 0.9l7.6 -0.2l6.4 -1.1l6.5 -2.3l4 -2.4l4.1 -3.8l3.1 -4.4l2.7 -6.1l2.1 -8.7l0.7 -8.8l-0.4 -7.6l-1.9 -7.7l-2.5 -5.3l-4.5 -5.4l-4.9 -3.5l-6.1 -2.7l-8.7 -2.2l-8.7 -0.7l-7.6 0.5l-7.8 1.9l-5.8 2.8l-4.8 4.2l-3.8 5.3l-2.6 6.1l-2.1 8.6l-0.6 10.1l1 8.9l2.6 7.8l3.5 5.3l5.1 4.6l7.3 3.7l8.6 2.2"/><path d="M140.5 249.4l1.3 0.3l116.4 -99.4l-0.1 -1.3l-99.2 -116.3l-1.3 0.4l-115.9 98.9l-0.5 1.2l99.3 116.2"/><path d="M138.7 176.3l-8.6 -2.9l-6 -3.6l-4.7 -4.9l-3.3 -6l-2.2 -8.6l-0.4 -10.1l1.4 -10l2.9 -8.7l2.9 -5l4.1 -4.5l5.4 -3.5l6.5 -2.3l7.6 -1.2l8.9 0.1l8.7 1.4l7.4 2.5l5.4 3.1l4.5 4.2l3.5 5.3l2.3 6.5l1.2 7.7l-0.1 8.8l-1.4 8.7l-2.5 7.4l-2.7 4.9l-3.6 4.3l-4.1 3l-5.2 2.5l-6.5 1.7l-6.3 0.6l-7.6 -0.2l-7.5 -1.2"/></g></svg>