<svg xmlns="http://www.w3.org/2000/svg" viewBox="0 0 400 400" role="img" aria-label="Chladni resonance figure (mode 3,4)"><g fill="none" stroke="#2E7D46" stroke-width="2.2" stroke-linecap="round" stroke-linejoin="round"><path d="M148.5 366.4l0 -9.9l1.9 -8.8l3.7 -7.9l5.4 -6.7l6.8 -5.6l8.2 -4.8l34.3 -15.1l5.8 -3.9l4.5 -4.7l2.7 -4.7l2.4 -5.9l6.3 -24.7l3.9 -11.6l5.3 -10.4l6 -8.1l6.7 -6.4l6.9 -5.1l9.3 -5.5l23.6 -11.8l5.7 -4l4.5 -4.7l3.1 -5.6l2.3 -6.8l5.3 -27.4l2.8 -10.6l3.6 -9l4.4 -7l5.6 -5.7l7 -4.5l7.1 -2.8l8.5 -1.7"/><path d="M330.5 347.3l-1.4 -16l-0.3 -11.1l0.7 -7.5l2 -5.1l3.3 -3.2l7.2 -2.8l12.1 -2.4l17.1 -2.2"/><path d="M47.9 285l9.7 -2l8.3 -3.7l6.9 -5.3l5.5 -6.8l4 -7.8l3 -8.9l7.7 -36.8l2.6 -6.4l3.6 -5.4l4 -3.6l5.3 -3.6l22.9 -11.3l10.5 -6.2l9.1 -7.4l6.6 -7.5l4.9 -7.9l3.6 -7.8l3.4 -10.3l6.6 -25.4l2.7 -6.5l3.8 -5.4l4.8 -4.2l6.1 -3.6l25.7 -10.9l9.8 -4.9l8.1 -5.5l5.9 -5.7l4.4 -6.7l3 -7.7l1.2 -7.6l-0.1 -8.6"/><path d="M361.7 206l-13.4 2.2l-10.8 3.4l-7.1 4.4l-2.6 2.8l-2.4 3.9l-2.3 6.5l-1.4 8.8l-0.7 12.5l-0.3 32.2l-1 7.4l-2 4.4l-3.4 3.1l-5.5 2.4l-43.9 10.4l-9.6 3.4l-7 4.1l-3.4 3.2l-2.1 3.1l-2.8 7.8l-1.2 11.3l0.7 13.6"/><path d="M28.8 103l17.1 -2.2l12.1 -2.4l7.2 -2.8l3.3 -3.2l2 -5.1l0.7 -7.5l-0.3 -11.1l-1.4 -16"/><path d="M160.5 43.1l0.7 13.6l-1.2 11.3l-2.8 7.8l-2.1 3.1l-3.4 3.2l-7 4.1l-9.6 3.4l-43.9 10.4l-5.5 2.4l-3.4 3.1l-2 4.4l-1 7.4l-0.3 32.2l-0.7 12.5l-1.4 8.8l-2.3 6.5l-2.4 3.9l-2.6 2.8l-7.1 4.4l-10.8 3.4l-13.4 2.2"/><path d="M342.5 24l-285 352"/></g></svg>