<svg xmlns="http://www.w3.org/2000/svg" viewBox="0 0 400 400" role="img" aria-label="Chladni resonance figure (mode 3,7)"><g fill="none" stroke="#C03A78" stroke-width="2.2" stroke-linecap="round" stroke-linejoin="round"><path d="M94.4 376l0.4 -8.1l1.3 -8.1l1.7 -5.5l2.8 -5.4l3.3 -3.7l4.6 -3l4.9 -1.8l6.7 -0.7l6.8 0.5l8.1 2.2l8.1 3.9l6.8 4.7l6.4 6l4.9 6.8l2.9 6.8l0.7 5.4"/><path d="M200 376l0 -66.3l1.4 -0.6l13.5 -0.5l12.2 -1.4l9.5 -1.9l9.4 -3l8.2 -3.6l8.9 -5.3l7.3 -5.4l8.1 -7.5l1.4 -0.6l96.1 96.1"/><path d="M305.6 376l-0.4 -8.1l-1.3 -8.1l-1.7 -5.5l-2.8 -5.4l-3.3 -3.7l-4.6 -3l-4.9 -1.8l-6.7 -0.7l-6.8 0.5l-8.1 2.2l-8.1 3.9l-6.8 4.7l-6.4 6l-4.9 6.8l-2.9 6.8l-0.7 5.4"/><path d="M24 305.6l8.1 -0.4l8.1 -1.3l5.5 -1.7l5.4 -2.8l3.7 -3.3l3 -4.6l1.8 -4.9l0.7 -6.7l-0.5 -6.8l-2.2 -8.1l-3.9 -8.1l-4.7 -6.8l-6 -6.4l-6.8 -4.9l-6.8 -2.9l-5.4 -0.7"/><path d="M376 305.6l-8.1 -0.4l-8.1 -1.3l-5.5 -1.7l-5.4 -2.8l-3.7 -3.3l-3 -4.6l-1.8 -4.9l-0.7 -6.7l0.5 -6.8l2.2 -8.1l3.9 -8.1l4.7 -6.8l6 -6.4l6.8 -4.9l6.8 -2.9l5.4 -0.7"/><path d="M24 200l66.3 0l0.6 -1.4l0.5 -13.5l1.4 -12.2l1.9 -9.5l3 -9.4l3.6 -8.2l5.3 -8.9l5.4 -7.3l7.5 -8.1l0.6 -1.4l-96.1 -96.1"/><path d="M376 200l-66.3 0l-0.6 -1.4l-0.5 -13.5l-1.4 -12.2l-1.9 -9.5l-3 -9.4l-3.6 -8.2l-5.3 -8.9l-5.4 -7.3l-7.5 -8.1l-0.6 -1.4l-78.5 78.5l1.3 1.4l106.4 0l-0.3 12.2l-1.2 12.2l-2 10.8l-2.8 9.5l-3.4 8.1l-4.6 8.3l-5.4 7.6l-8.9 9.8l-0.6 1.4l-78.5 -78.5l-1.4 1.3l0 106.4l-12.2 -0.3l-12.2 -1.2l-10.8 -2l-9.5 -2.8l-8.1 -3.4l-8.3 -4.6l-7.6 -5.4l-9.8 -8.9l-1.4 -0.6l-96.1 96.1"/><path d="M24 94.4l8.1 0.4l8.1 1.3l5.5 1.7l5.4 2.8l3.7 3.3l3 4.6l1.8 4.9l0.7 6.7l-0.5 6.8l-2.2 8.1l-3.9 8.1l-4.7 6.8l-6 6.4l-6.8 4.9l-6.8 2.9l-5.4 0.7"/><path d="M376 94.4l-8.1 0.4l-8.1 1.3l-5.5 1.7l-5.4 2.8l-3.7 3.3l-3 4.6l-1.8 4.9l-0.7 6.7l0.5 6.8l2.2 8.1l3.9 8.1l4.7 6.8l6 6.4l6.8 4.9l6.8 2.9l5.4 0.7"/><path d="M94.4 24l0.4 8.1l1.3 8.1l1.7 5.5l2.8 5.4l3.3 3.7l4.6 3l4.9 1.8l6.7 0.7l6.8 -0.5l8.1 -2.2l8.1 -3.9l6.8 -4.7l6.4 -6l4.9 -6.8l2.9 -6.8l0.7 -5.4"/><path d="M200 24l0 66.3l1.4 0.6l13.5 0.5l12.2 1.4l9.5 1.9l9.4 3l8.2 3.6l8.9 5.3l7.3 5.4l8.1 7.5l1.4 0.6l96.1 -96.1"/><path d="M305.6 24l-0.4 8.1l-1.3 8.1l-1.7 5.5l-2.8 5.4l-3.3 3.7l-4.6 3l-4.9 1.8l-6.7 0.7l-6.8 -0.5l-8.1 -2.2l-8.1 -3.9l-6.8 -4.7l-6.4 -6l-4.9 -6.8l-2.9 -6.8l-0.7 -5.4"/><path d="M120.1 279.9l81.3 -81.3l-1.4 -1.3l0 -106.4l-12.2 0.3l-12.2 1.2l-10.8 2l-9.5 2.8l-8.1 3.4l-8.3 4.6l-7.6 5.4l-9.8 8.9l-1.4 0.6l78.5 78.5l-1.3 1.4l-106.4 0l0.3 12.2l1.2 12.2l2 10.8l2.8 9.5l3.4 8.1l4.6 8.3l5.4 7.6l8.9 9.8l0.6 1.4"/></g></svg>