<svg xmlns="http://www.w3.org/2000/svg" viewBox="0 0 400 400" role="img" aria-label="Chladni resonance figure (mode 3,5)"><g fill="none" stroke="#B1832F" stroke-width="2.2" stroke-linecap="round" stroke-linejoin="round"><path d="M101.8 345.3l2.6 -10.6l4.2 -8l2.6 -3.3l3.6 -3.2l4 -2.7l4.8 -2.2l10.5 -2.7l13.5 -1.1l17 0.4l20.4 2l-5.5 41.6"/><path d="M257.3 365.8l0.2 -11l-2 -8.7l-1.7 -3.9l-2.6 -4.1l-3.2 -3.6l-4.1 -3.4l-9.4 -5.2l-12.7 -4.7l-15.4 -3.7l-21.4 -3.8l14.7 -111.3l1.3 -1l134 174.6"/><path d="M34.2 257.3l11 0.2l8.7 -2l3.9 -1.7l4.1 -2.6l3.6 -3.2l3.4 -4.1l5.2 -9.4l4.7 -12.7l4 -16.5l3.3 -20.3l-41.6 -5.5"/><path d="M345.3 298.2l-10.6 -2.6l-8 -4.2l-3.3 -2.6l-3.2 -3.6l-2.7 -4l-2.2 -4.8l-2.7 -10.5l-1.1 -13.5l0.4 -17l2 -20.4l41.6 5.5"/><path d="M54.7 101.8l10.6 2.6l8 4.2l3.3 2.6l3.2 3.6l2.7 4l2.2 4.8l2.7 10.5l1.1 13.5l-0.3 15.8l-1.9 21.6l111.3 14.7l1.4 -1.1l-134 -174.6"/><path d="M365.8 142.7l-11 -0.2l-8.7 2l-3.9 1.7l-4.1 2.6l-3.6 3.2l-3.4 4.1l-5.2 9.4l-4.7 12.7l-3.7 15.4l-3.8 21.4l-111.3 -14.7l-1 -1.3l-177.4 136"/><path d="M142.7 34.2l-0.2 11l2 8.7l1.7 3.9l2.6 4.1l3.2 3.6l4.1 3.4l9.4 5.2l12.7 4.7l16.5 4l20.3 3.3l5.5 -41.6"/><path d="M298.2 54.7l-2.6 10.6l-4.2 8l-2.6 3.3l-3.6 3.2l-4 2.7l-4.8 2.2l-10.5 2.7l-13.5 1.1l-15.8 -0.3l-21.6 -1.9l-14.7 111.3l1.1 1.4l174.6 -134"/></g></svg>