<svg xmlns="http://www.w3.org/2000/svg" viewBox="0 0 400 400" role="img" aria-label="Chladni resonance figure (mode 4,7)"><g fill="none" stroke="#B1832F" stroke-width="2.2" stroke-linecap="round" stroke-linejoin="round"><path d="M127.4 367.2l-0.4 -7.1l0.9 -6.1l2.1 -5.1l3.1 -4.2l4.2 -3.5l6.6 -3.6l8 -2.7l9.2 -2l5.9 -0.6l3.7 0.2l3.2 1l2 1.6l1.6 2.6l1.7 4.6l3.4 16.2"/><path d="M237.9 349.7l-1.8 -5.7l-3.5 -5.4l-4.4 -4.1l-6.3 -3.7l-10.1 -3.3l-7.4 -1.2l-15.8 -1.3l-3.7 -0.9l-2.6 -1.5l-1.9 -2.1l-1.7 -3.3l-7.1 -20.4l-5.3 -11.2l-5.5 -8l-4.3 -4.5l-5.3 -4.3l-0.4 -1.1l-78.7 108.3"/><path d="M293.1 341l0.1 -3.6l1.8 -5.1l3.3 -5.3l4.3 -5.5l8.7 -8.5l16.1 -12.2l5.1 -5.6l3.2 -6.5l6.7 -19l4.9 -9.7l3.9 -5.8l4 -4.7l4.3 -3.3l3.4 -1.2"/><path d="M371.6 300.2l-8.1 1.8l-5.6 2.2l-4.4 2.6l-3.1 3.4l-1.8 4l-0.9 5l-0.1 6l0.8 7"/><path d="M63.4 320.8l6.9 -1.8l5.5 -2.8l4.3 -3.6l2.9 -4.2l2.1 -5.1l1.3 -7.4l0.2 -8.4l-1 -9.5l-1.2 -5.8l-1.3 -3.4l-2 -2.7l-2.2 -1.4l-3 -0.8l-4.8 -0.2l-16.5 1.8"/><path d="M360 226.6l-7.3 -0.3l-14.9 -3.4l-17.2 -2.8l-6.3 -2.3l-4.7 -4l-10.6 -15.1l-7.6 -8.4l-9 -7.4l-10.6 -5.9l-7.5 -2.4l-7.3 -0.3l-5.7 1.7l-2.1 1.5l-2.1 2.3l-2.6 6l-1.1 8.1l0.1 11.2l1.6 21.3l-0.7 4.9l-2 2l-2.5 1.1l-26.2 6.7l-6.8 2.3l-5.6 2.6l-4.3 3.2l-2.6 3.2l-1.4 3.8l0 4.8l1.6 5.7l4 6.6l4.7 5.3l7.2 6l5.9 3.9l6.5 3.4l7.7 3.1l16.4 5l3.9 2.1l2.4 2.1l3.6 5.1l7.5 14.7l7.8 13.1l2.5 6.8"/><path d="M45.9 210.2l6 0l4.9 1.2l5.2 2.5l5.8 4.6l4.1 4.8l3.8 6l10.2 22.3l1.7 2.1l2.6 1.7l6.1 1.2l20.5 0.3l11 1.3l10.5 3.1l5.7 2.7l5.6 3.6l1.2 0.1l5.9 -8.1l92.5 -127.3l-0.4 -1.1l-5.3 -4.3l-4.3 -4.5l-5.5 -8l-5.3 -11.2l-7.1 -20.4l-1.7 -3.3l-1.9 -2.1l-2.6 -1.5l-3.7 -0.9l-15.8 -1.3l-7.4 -1.2l-10.1 -3.3l-6.3 -3.7l-4.4 -4.1l-3.5 -5.4l-1.8 -5.7"/><path d="M345.4 134.5l-16.5 1.8l-4.8 -0.2l-3 -0.8l-2.2 -1.4l-2 -2.7l-1.3 -3.4l-1.2 -5.8l-1 -9.5l0.2 -8.4l1.3 -7.4l2.1 -5.1l2.9 -4.2l4.3 -3.6l5.5 -2.8l6.9 -1.8"/><path d="M37.1 155l3.4 -1.2l4.3 -3.3l4 -4.7l3.9 -5.8l4.9 -9.7l6.7 -19l3.2 -6.5l5.1 -5.6l16.1 -12.2l8.7 -8.5l4.3 -5.5l3.3 -5.3l1.8 -5.1l0.1 -3.6"/><path d="M51.6 67.8l0.8 8.2l-0.2 6l-1.2 5l-2.3 4l-3.3 3l-4.4 2.3l-5.7 2l-6.9 1.5"/><path d="M125.3 56.1l2.5 6.8l7.8 13.1l8 15.5l4.1 5.3l5.3 3.2l17.6 5.4l10.4 4.6l9.8 6.4l8.9 8.2l4.6 6.4l2.5 6.8l0.2 6l-0.8 2.5l-1.5 2.6l-4.9 4.4l-7.4 3.6l-10.7 3.3l-20.7 5.1l-4.5 2.2l-1.3 2.5l-0.3 2.7l1.8 27l-0.1 7.2l-0.8 6.1l-1.6 5l-2.3 3.5l-3.2 2.5l-4.6 1.6l-5.9 0.1l-7.5 -1.7l-6.4 -2.8l-8 -5.1l-5.5 -4.4l-5.3 -5.1l-5.3 -6.4l-9.8 -14l-3.3 -3.1l-2.6 -1.6l-6.1 -1.8l-16.2 -2.6l-14.9 -3.4l-7.3 -0.3"/><path d="M217.4 41.5l3.4 16.2l1.7 4.6l1.6 2.6l2 1.6l3.2 1l3.7 0.2l5.9 -0.6l9.2 -2l8 -2.7l6.6 -3.6l4.2 -3.5l3.1 -4.2l2.1 -5.1l0.9 -6.1l-0.4 -7.1"/><path d="M327.9 24l-78.7 108.3l1.2 0.1l5.6 3.6l5.7 2.7l9.3 2.8l12.2 1.6l21.7 0.4l3.7 0.6l2.5 1.2l2.3 2l2 3.3l6.1 14.6l3.4 6.6l6.3 8.6l5.4 4.8l5.3 2.9l6.2 1.7l6 0"/><path d="M268 289l-3.7 -0.9l-3.2 -1.9l-2.5 -3.2l-2.4 -5.6l-3.1 -11.5l-2.8 -15.2l-1 -9.4l0.1 -2.4l0.7 -2.2l2.2 -1.7l4.5 -1.5l21.1 -3.2l15.1 -0.7l4.1 0.6l3.7 1.3l2.9 2.4l2 3.3l1.4 4.5l0.7 5.9l-0.2 6l-1 6.2l-1.5 5l-2.5 5.2l-2.8 4l-3.6 4l-4.2 3.5l-4.4 2.7l-5.6 2.5l-4.6 1.4l-4.6 0.8l-4.8 0.1"/><path d="M115 170.3l14.2 -1.4l14 -2.4l4.5 -1.5l1.9 -1.3l0.7 -1.4l0.4 -4.8l-1 -8.2l-2.3 -12.9l-2.5 -10.3l-1.9 -5.7l-2.3 -4.4l-2.3 -2.6l-2.7 -1.5l-4.9 -1l-7.1 0.8l-6.8 2l-6.7 3.4l-5.4 3.9l-4.1 4.3l-3.3 4.7l-2.9 6.4l-1.8 7.5l-0.5 8.5l1 7l2.3 5.6l2.3 2.6l3.9 1.9l5.3 0.9l8 -0.1"/></g></svg>