<svg xmlns="http://www.w3.org/2000/svg" viewBox="0 0 400 400" role="img" aria-label="Chladni resonance figure (mode 5,7)"><g fill="none" stroke="#C03A78" stroke-width="2.2" stroke-linecap="round" stroke-linejoin="round"><path d="M82.7 376l0.7 -6.8l1.8 -5.4l3.5 -5.4l4.3 -3.9l4.8 -2.9l6.1 -2.5l21.6 -6.3l4.1 -2l3.3 -2.7l3.5 -5.7l5.7 -17.3l3.5 -8.1l4.3 -6.7l5.4 -5.2l8.1 -4.7l9.5 -3l12.2 -1.9l14.9 -0.8l0 -82l1.4 -1.3l174.6 174.6"/><path d="M200 376l0 -29.8l1.4 -0.4l17.6 0.3l14.8 0.9l9.5 1.4l6.8 2.4l4.1 3.3l2.2 4.3l1.6 6.8l0.7 10.8"/><path d="M317.3 376l-0.7 -6.8l-1.8 -5.4l-3.5 -5.4l-4.3 -3.9l-4.8 -2.9l-6.1 -2.5l-21.6 -6.3l-4.1 -2l-3.3 -2.7l-3.5 -5.7l-5.7 -17.3l-3.5 -8.1l-4.3 -6.7l-5.4 -5.2l-8.1 -4.7l-9.5 -3l-12.2 -1.9l-13.5 -0.8l-1.4 0.6l0 60.5l-19 0.3l-14.8 0.9l-9.5 1.4l-6.8 2.4l-4.1 3.3l-2.2 4.3l-1.6 6.8l-0.7 10.8"/><path d="M24 317.3l6.8 -0.7l5.4 -1.8l5.4 -3.5l3.9 -4.3l2.9 -4.8l2.5 -6.1l6.3 -21.6l2 -4.1l2.7 -3.3l5.7 -3.5l17.3 -5.7l8.1 -3.5l6.7 -4.3l5.2 -5.4l4.7 -8.1l3 -9.5l1.9 -12.2l0.8 -14.9l82 0l1.3 -1.4l-174.6 -174.6"/><path d="M376 317.3l-6.8 -0.7l-5.4 -1.8l-5.4 -3.5l-3.9 -4.3l-2.9 -4.8l-2.5 -6.1l-6.3 -21.6l-2 -4.1l-2.7 -3.3l-5.7 -3.5l-17.3 -5.7l-8.1 -3.5l-6.7 -4.3l-5.2 -5.4l-4.7 -8.1l-3 -9.5l-1.9 -12.2l-0.8 -14.9l-82 0l-1.3 -1.4l-177.4 177.4"/><path d="M24 200l29.8 0l0.4 -1.4l-0.3 -17.6l-0.9 -14.8l-1.4 -9.5l-2.4 -6.8l-3.3 -4.1l-4.3 -2.2l-6.8 -1.6l-10.8 -0.7"/><path d="M376 200l-29.8 0l-0.4 -1.4l0.3 -17.6l0.9 -14.8l1.4 -9.5l2.4 -6.8l3.3 -4.1l4.3 -2.2l6.8 -1.6l10.8 -0.7"/><path d="M24 82.7l6.8 0.7l5.4 1.8l5.4 3.5l3.9 4.3l2.9 4.8l2.5 6.1l6.3 21.6l2 4.1l2.7 3.3l5.7 3.5l17.3 5.7l8.1 3.5l6.7 4.3l5.2 5.4l4.7 8.1l3 9.5l1.9 12.2l0.8 13.5l-0.6 1.4l-60.5 0l-0.3 19l-0.9 14.8l-1.4 9.5l-2.4 6.8l-3.3 4.1l-4.3 2.2l-6.8 1.6l-10.8 0.7"/><path d="M376 82.7l-6.8 0.7l-5.4 1.8l-5.4 3.5l-3.9 4.3l-2.9 4.8l-2.5 6.1l-6.3 21.6l-2 4.1l-2.7 3.3l-5.7 3.5l-17.3 5.7l-8.1 3.5l-6.7 4.3l-5.2 5.4l-4.7 8.1l-3 9.5l-1.9 12.2l-0.8 13.5l0.6 1.4l60.5 0l0.3 19l0.9 14.8l1.4 9.5l2.4 6.8l3.3 4.1l4.3 2.2l6.8 1.6l10.8 0.7"/><path d="M82.7 24l0.7 6.8l1.8 5.4l3.5 5.4l4.3 3.9l4.8 2.9l6.1 2.5l21.6 6.3l4.1 2l3.3 2.7l3.5 5.7l5.7 17.3l3.5 8.1l4.3 6.7l5.4 5.2l8.1 4.7l9.5 3l12.2 1.9l14.9 0.8l0 82l1.4 1.3l174.6 -174.6"/><path d="M200 24l0 29.8l1.4 0.4l17.6 -0.3l14.8 -0.9l9.5 -1.4l6.8 -2.4l4.1 -3.3l2.2 -4.3l1.6 -6.8l0.7 -10.8"/><path d="M317.3 24l-0.7 6.8l-1.8 5.4l-3.5 5.4l-4.3 3.9l-4.8 2.9l-6.1 2.5l-21.6 6.3l-4.1 2l-3.3 2.7l-3.5 5.7l-5.7 17.3l-3.5 8.1l-4.3 6.7l-5.4 5.2l-8.1 4.7l-9.5 3l-12.2 1.9l-13.5 0.8l-1.4 -0.6l0 -60.5l-19 -0.3l-14.8 -0.9l-9.5 -1.4l-6.8 -2.4l-4.1 -3.3l-2.2 -4.3l-1.6 -6.8l-0.7 -10.8"/></g></svg>