<svg xmlns="http://www.w3.org/2000/svg" viewBox="0 0 400 400" role="img" aria-label="Chladni resonance figure (mode 3,6)"><g fill="none" stroke="#B1832F" stroke-width="2.2" stroke-linecap="round" stroke-linejoin="round"><path d="M100.2 369l1 -9.2l2.1 -7.9l3.1 -6.3l4.1 -4.9l5.4 -4l6.7 -2.8l7.9 -1.6l9.3 -0.4l7.9 0.8l7.8 2l6.6 3l5.1 4l4.2 5.4l2.9 6.7l1.7 8l0.5 9.2"/><path d="M328.9 375l0.7 -7.9l1.9 -7.9l2.9 -6.5l4.3 -5.6l5.4 -4.1l6.7 -2.9l8 -1.8l9.2 -0.4"/><path d="M26 290.8l9.2 -0.5l8 -1.7l6.5 -2.8l5.1 -3.8l4.3 -5.2l3.1 -6.5l2 -7.8l0.9 -9.3l-0.3 -7.9l-1.6 -8l-2.7 -6.6l-3.8 -5.4l-5.1 -4.4l-6.5 -3.3l-7.9 -2.1l-9.2 -0.9"/><path d="M372 185.4l-9.2 -0.9l-7.9 -2.1l-6.5 -3.3l-5.1 -4.4l-3.8 -5.4l-2.7 -6.6l-1.6 -8l-0.3 -7.9l0.9 -9.3l2 -7.8l3.1 -6.5l4.3 -5.2l5.1 -3.8l6.5 -2.8l8 -1.7l9.2 -0.5"/><path d="M32 62.1l9.2 -0.4l8 -1.8l6.7 -2.9l5.4 -4.1l4.3 -5.6l2.9 -6.5l1.9 -7.9l0.7 -7.9"/><path d="M223.5 29l0.5 9.2l1.7 8l2.9 6.7l4.2 5.4l5.1 4l6.6 3l7.8 2l7.9 0.8l9.3 -0.4l7.9 -1.6l6.7 -2.8l5.4 -4l4.1 -4.9l3.1 -6.3l2.1 -7.9l1 -9.2"/><path d="M376 33l-117.8 111.8l1.3 0.3l109.2 115.4l1.2 0.7l-0.5 1.3l-115.8 109.9l-1.4 0.4l-0.6 -1.1l-109.6 -115.1l-0.2 -1.4l-117.8 111.8"/><path d="M249 296.4l7.9 0.4l7.9 -0.6l6.7 -1.5l6.6 -2.8l4.1 -2.7l4 -4.2l3 -4.8l2.5 -6.5l1.8 -9.2l0.2 -9.2l-0.9 -8l-2.3 -8l-2.9 -5.3l-5 -5.4l-5.4 -3.5l-6.5 -2.5l-9.2 -1.7l-9.2 -0.3l-8 0.9l-8 2.4l-5.9 3.3l-4.8 4.6l-3.7 5.7l-2.4 6.6l-1.7 9.2l-0.1 10.5l1.5 9.3l3.2 8l3.9 5.4l5.6 4.5l7.9 3.5l9.2 1.9"/><path d="M140.5 254.9l1.3 0.3l116.4 -110.4l-0.2 -1.4l-109.6 -115.1l-0.6 -1.1l-1.4 0.4l-115.8 109.9l-0.5 1.3l1.2 0.7l109.2 115.4"/><path d="M134.6 178.6l-9.2 -2.6l-6.5 -3.5l-5.2 -4.8l-3.8 -6.2l-2.7 -8.8l-1 -10.6l0.9 -10.5l2.5 -9.2l2.8 -5.4l4.1 -5l5.4 -3.9l6.6 -2.8l8 -1.7l9.3 -0.4l9.2 1l7.8 2.3l5.9 2.9l5 4.1l3.9 5.4l2.8 6.7l1.6 7.9l0.4 9.3l-1 9.2l-2.2 7.8l-2.5 5.3l-3.6 4.7l-4.1 3.4l-5.3 2.9l-6.7 2.1l-6.6 1l-8 0.2l-7.8 -0.8"/></g></svg>