<svg xmlns="http://www.w3.org/2000/svg" viewBox="0 0 400 400" role="img" aria-label="Chladni resonance figure (mode 3,6)"><g fill="none" stroke="#C03A78" stroke-width="2.2" stroke-linecap="round" stroke-linejoin="round"><path d="M98.3 362.4l1.2 -9l2.3 -7.6l3.2 -6.1l4.1 -4.7l5.3 -3.7l6.6 -2.6l7.8 -1.4l9.1 -0.1l7.7 0.9l7.6 2.2l6.3 3.1l4.9 4.1l3.9 5.3l2.7 6.6l1.4 7.8l0.3 9.1"/><path d="M321.3 374.1l0.9 -7.7l2.1 -7.7l3 -6.3l4.3 -5.3l5.4 -3.9l6.6 -2.7l7.8 -1.5l9 -0.2"/><path d="M27.9 284.1l9 -0.2l7.9 -1.4l6.3 -2.6l5.2 -3.6l4.2 -4.9l3.2 -6.3l2.2 -7.6l1.1 -9l-0.1 -7.7l-1.3 -7.9l-2.5 -6.5l-3.5 -5.4l-4.9 -4.4l-6.3 -3.3l-7.6 -2.3l-9 -1.2"/><path d="M368.2 190.2l-9 -1.2l-7.6 -2.3l-6.3 -3.3l-4.9 -4.4l-3.5 -5.4l-2.5 -6.5l-1.3 -7.9l-0.1 -7.7l1.1 -9l2.2 -7.6l3.2 -6.3l4.2 -4.9l5.2 -3.6l6.3 -2.6l7.9 -1.4l9 -0.2"/><path d="M39.6 61.2l9 -0.2l7.8 -1.5l6.6 -2.7l5.4 -3.9l4.3 -5.3l3 -6.3l2.1 -7.7l0.9 -7.7"/><path d="M227.3 33.7l0.3 9.1l1.4 7.8l2.7 6.6l3.9 5.3l4.9 4.1l6.3 3.1l7.6 2.2l7.7 0.9l9.1 -0.1l7.8 -1.4l6.6 -2.6l5.3 -3.7l4.1 -4.7l3.2 -6.1l2.3 -7.6l1.2 -9"/><path d="M376 41.5l-117.8 106.1l1.3 0.3l103.6 115.4l1.1 0.8l-0.5 1.2l-115.8 104.3l-1.3 0.4l-0.7 -1.2l-103.9 -115.1l-0.2 -1.3l-117.8 106.1"/><path d="M245.3 295.3l7.7 0.6l7.8 -0.4l6.5 -1.2l6.6 -2.6l4 -2.6l4.1 -4l3 -4.5l2.6 -6.4l2 -8.9l0.5 -9l-0.7 -7.8l-2.1 -7.8l-2.7 -5.3l-4.8 -5.4l-5.1 -3.5l-6.3 -2.6l-8.9 -2l-9 -0.5l-7.8 0.7l-7.9 2.1l-5.8 3.1l-4.9 4.4l-3.7 5.5l-2.5 6.3l-1.9 8.9l-0.4 10.3l1.3 9.1l2.9 7.9l3.7 5.4l5.3 4.5l7.6 3.6l8.9 2.1"/><path d="M140.5 252.1l1.3 0.3l116.4 -104.8l-0.2 -1.3l-103.9 -115.1l-0.7 -1.2l-1.3 0.4l-115.8 104.3l-0.5 1.2l1.1 0.8l103.6 115.4"/><path d="M136.7 177.4l-8.9 -2.7l-6.3 -3.6l-4.9 -4.8l-3.5 -6.1l-2.5 -8.7l-0.7 -10.4l1.2 -10.3l2.7 -8.8l2.8 -5.3l4.2 -4.7l5.3 -3.7l6.6 -2.6l7.8 -1.4l9.1 -0.1l8.9 1.2l7.6 2.4l5.7 3l4.7 4.1l3.7 5.4l2.6 6.6l1.4 7.8l0.1 9l-1.2 9l-2.4 7.6l-2.6 5l-3.6 4.5l-4 3.3l-5.3 2.7l-6.6 1.8l-6.5 0.9l-7.7 -0.1l-7.7 -1"/></g></svg>