<svg xmlns="http://www.w3.org/2000/svg" viewBox="0 0 400 400" role="img" aria-label="Chladni resonance figure (mode 3,4)"><g fill="none" stroke="#C03A78" stroke-width="2.2" stroke-linecap="round" stroke-linejoin="round"><path d="M112.9 346.7l1.8 -8.2l2.9 -6.9l4.6 -6.7l5.8 -5.4l6.9 -4.1l9 -3.3l10.4 -2.5l27 -4.5l6.7 -2l5.5 -2.9l4.8 -4.3l4.1 -5.5l12.1 -22.8l5.6 -9l5.2 -6.6l6.4 -6.4l8.1 -5.6l10.4 -4.9l11.4 -3.6l24.3 -5.6l5.9 -2.1l4.6 -2.6l4.7 -4.2l4 -5.6l15.7 -33.2l4.9 -7.9l5.6 -6.5l6.8 -5.2l7.8 -3.4l8.7 -1.7l9.7 0.3"/><path d="M290.6 370.1l2.4 -15.5l2.2 -10.6l2.4 -7.1l3.1 -4.4l3.9 -2.2l7.4 -1.1l12.1 0.5l16.8 1.9"/><path d="M35.7 246.2l9.7 0.3l8.7 -1.7l7.8 -3.4l6.8 -5.2l5.6 -6.5l4.9 -7.9l15.7 -33.2l4 -5.6l4.7 -4.2l4.6 -2.6l5.9 -2.1l24.3 -5.6l11.4 -3.6l10.4 -4.9l8.1 -5.6l6.4 -6.4l5.2 -6.6l5.6 -9l12.1 -22.8l4.1 -5.5l4.8 -4.3l5.5 -2.9l6.7 -2l27 -4.5l10.4 -2.5l9 -3.3l6.9 -4.1l5.8 -5.4l4.6 -6.7l2.9 -6.9l1.8 -8.2"/><path d="M352.6 242.7l-13.3 -1l-11 0.8l-7.7 2.6l-3.1 2l-3.3 3.2l-4.2 6.8l-3.6 9.2l-11.2 42.8l-2.5 5.3l-3.1 3.3l-4.5 1.8l-7.2 0.8l-31.6 -0.5l-12.2 0.3l-8.7 1.2l-6.3 2l-4 2.3l-2.8 2.5l-4.4 6.8l-3.7 10.5l-2.5 13"/><path d="M59.1 68.4l15.6 1.8l10.9 0.6l7.4 -0.5l5 -1.8l3.2 -3.2l2.9 -6.9l2.7 -11.8l2.6 -16.7"/><path d="M198.3 41.6l-2.5 13l-3.7 10.5l-4.4 6.8l-2.8 2.5l-4 2.3l-7.6 2.2l-9.8 1.1l-44.3 -0.2l-5.8 1.1l-3.9 2.1l-2.9 3.9l-2.7 6.7l-7.6 30.7l-3.5 11.7l-3.4 8.1l-3.6 5.6l-3.3 3.2l-3.1 2l-7.7 2.6l-11 0.8l-13.3 -1"/><path d="M376 65l-352 270"/></g></svg>