<svg xmlns="http://www.w3.org/2000/svg" viewBox="0 0 400 400" role="img" aria-label="Chladni resonance figure (mode 2,4)"><g fill="none" stroke="#2E7D46" stroke-width="2.2" stroke-linecap="round" stroke-linejoin="round"><path d="M138.3 370l1.3 -13.2l3.1 -11.8l2.2 -5.2l2.9 -5.2l2.9 -3.9l3.7 -3.8l8.1 -5.7l9.3 -3.8l12 -2.5l13.2 -0.6l13.2 1.3l11.8 3.1l9.1 4.3l7.8 6.1l3.5 4l2.6 4.1l2.7 5.3l1.9 5.3l2.5 12l0.6 13.2"/><path d="M367 376l-167 -176l-176 167"/><path d="M27 252.7l13.2 -0.6l12 -2.5l5.3 -1.9l5.3 -2.7l4.1 -2.6l4 -3.5l6.1 -7.8l4.3 -9.1l3.1 -11.8l1.3 -13.2l-0.6 -13.2l-2.5 -12l-3.8 -9.3l-5.7 -8.1l-3.8 -3.7l-3.9 -2.9l-5.2 -2.9l-5.2 -2.2l-11.8 -3.1l-13.2 -1.3"/><path d="M373 147.3l-13.2 0.6l-12 2.5l-5.3 1.9l-5.3 2.7l-4.1 2.6l-4 3.5l-6.1 7.8l-4.3 9.1l-3.1 11.8l-1.3 13.2l0.6 13.2l2.5 12l3.8 9.3l5.7 8.1l3.8 3.7l3.9 2.9l5.2 2.9l5.2 2.2l11.8 3.1l13.2 1.3"/><path d="M33 24l167 176l176 -167"/><path d="M261.7 30l-1.3 13.2l-3.1 11.8l-2.2 5.2l-2.9 5.2l-2.9 3.9l-3.7 3.8l-8.1 5.7l-9.3 3.8l-12 2.5l-13.2 0.6l-13.2 -1.3l-11.8 -3.1l-9.1 -4.3l-7.8 -6.1l-3.5 -4l-2.6 -4.1l-2.7 -5.3l-1.9 -5.3l-2.5 -12l-0.6 -13.2"/></g></svg>