<svg xmlns="http://www.w3.org/2000/svg" viewBox="0 0 400 400" role="img" aria-label="Chladni resonance figure (mode 4,5)"><g fill="none" stroke="#2E7D46" stroke-width="2.2" stroke-linecap="round" stroke-linejoin="round"><path d="M128.3 368.6l-0.2 -6.2l1.1 -6.3l1.9 -5.2l3.3 -5.3l4.8 -4.9l5.8 -4l7.9 -4.2l19.3 -8.6l5.8 -3.6l3.3 -3.3l2.7 -3.8l2.3 -5.2l5.4 -17.9l3.3 -9.1l3.3 -6.5l3.6 -5.3l4.8 -5.5l5.7 -5l23.2 -15.4l7.9 -7l3.2 -4.5l2.5 -4.8l7.9 -20.6l3.5 -7.8l4.2 -6.9l5.5 -6.6l9.1 -7.6l22.9 -13l4.2 -2.9l3.1 -3l2.8 -3.9l2.2 -5.1l6.8 -29.2l2.4 -6.5l2.8 -5.4l4.4 -5.3l5.8 -4.3l5.9 -2.6l7.3 -1.5"/><path d="M269.8 353.7l-0.8 -13.6l0.6 -8.6l1.8 -5.7l3.2 -3.6l4.9 -2.5l8.4 -2.5l37.6 -7l4.8 -1.8l2.2 -2.2l1.2 -3.8l0.3 -5l-1 -38.3l0.6 -6.3l1.5 -5.2l2.8 -3.9l5.2 -3l8.3 -2.4l13.4 -2"/><path d="M372.3 307.1l-23.2 3.2l-4.8 1.4l-3.5 2.3l-1.6 3.9l-0.3 5l1.7 23.3"/><path d="M50 305.2l6.1 -1.1l6 -2.3l4.6 -3l4.5 -4.4l3.8 -5.7l2.7 -6.5l2.5 -8.6l4.4 -20.6l2.4 -6.4l2.4 -4l3.2 -3.4l4.6 -3.4l16.4 -8.9l8.2 -5.2l5.7 -4.6l4.5 -4.6l4.3 -5.8l3.7 -6.6l10.2 -25.9l5.3 -9.2l3.7 -4.1l4.1 -3.5l18.6 -11.9l6.9 -5.1l5.8 -5.5l5.4 -6.7l5.5 -10.5l8 -25.1l2 -4.7l2.2 -3.7l3.2 -3.5l4.6 -3.3l27.2 -12.7l5.8 -3.7l4.6 -3.9l4.4 -5.4l3 -6.5l1.3 -6.3l-0.1 -7.5"/><path d="M357.4 165.6l-9.7 1.6l-8.4 2.8l-5.4 3.5l-3.7 4.7l-1.9 4.8l-1.5 7.4l-2.4 33.7l-1.5 5.1l-2.5 4l-2.7 2.2l-4.7 2.3l-21.6 7l-9.5 3.8l-7.2 4.3l-5.4 5.7l-2.8 5.1l-2.1 6.7l-1.7 9.8l-2.3 22.7l-1.3 4.9l-2.3 4l-3.2 2.8l-4.2 2.1l-32.4 9.4l-6.9 3l-4.4 2.9l-3.7 4.5l-2.4 6.1l-1 8.8l0.4 9.8"/><path d="M35.2 163.7l13.4 -2l8.3 -2.4l5.2 -3l2.8 -3.9l1.5 -5.2l0.7 -8.8l-1 -38.3l0.8 -5l1.7 -2.6l3.5 -2l4.8 -1.3l37.6 -7l6 -1.9l4.9 -2.5l3.2 -3.6l1.8 -5.7l0.6 -8.6l-0.8 -13.6"/><path d="M59.4 53.8l1.7 23.3l-0.3 5l-1.6 3.9l-3.5 2.3l-4.8 1.4l-23.2 3.2"/><path d="M201 38.9l0.4 9.8l-1 8.8l-2.4 6.1l-3.7 4.5l-4.4 2.9l-6.9 3l-32.4 9.4l-4.2 2.1l-3.2 2.8l-2.3 4l-1.3 4.9l-2.3 22.7l-1.7 9.8l-2.1 6.7l-2.8 5.1l-5.4 5.7l-7.2 4.3l-9.5 3.8l-21.6 7l-4.7 2.3l-2.7 2.2l-2.5 4l-1.5 5.1l-2.4 33.7l-1.5 7.4l-1.9 4.8l-3.7 4.7l-5.4 3.5l-8.4 2.8l-9.7 1.6"/><path d="M342.5 24l-285 352"/></g></svg>