<svg xmlns="http://www.w3.org/2000/svg" viewBox="0 0 400 400" role="img" aria-label="Chladni resonance figure (mode 2,3)"><g fill="none" stroke="#C03A78" stroke-width="2.2" stroke-linecap="round" stroke-linejoin="round"><path d="M164.8 376l0.4 -8.1l1.3 -8.1l2.2 -8.2l2.8 -6.7l3.9 -6.8l4.1 -5.4l5.4 -5.4l5.2 -4.1l11.8 -6.8l14.3 -5.6l13.6 -3.9l32.5 -7.4l11.8 -3.4l8.5 -3.9l5.4 -4.2l4.2 -5.4l3.9 -8.5l3.4 -11.8l7.4 -32.5l3.9 -13.6l5.6 -14.3l6.8 -11.8l4.1 -5.2l5.4 -5.4l5.4 -4.1l6.8 -3.9l6.7 -2.8l8.2 -2.2l8.1 -1.3l8.1 -0.4"/><path d="M376 305.6l-21.7 0.7l-17.6 2.3l-6.7 1.6l-5.4 2.1l-4.1 2.4l-3.6 3.1l-3.1 4l-2.1 4.1l-3.1 10.8l-2.3 17.6l-0.7 21.7"/><path d="M24 235.2l8.1 -0.4l8.1 -1.3l8.2 -2.2l6.7 -2.8l6.8 -3.9l5.4 -4.1l5.4 -5.4l4.1 -5.2l6.8 -11.8l5.6 -14.3l3.9 -13.6l7.4 -32.5l3.4 -11.8l3.9 -8.5l4.2 -5.4l5.4 -4.2l8.5 -3.9l11.8 -3.4l32.5 -7.4l13.6 -3.9l14.3 -5.6l11.8 -6.8l5.2 -4.1l5.4 -5.4l4.1 -5.4l3.9 -6.8l2.8 -6.7l2.2 -8.2l1.3 -8.1l0.4 -8.1"/><path d="M94.4 24l-0.7 21.7l-2.3 17.6l-1.6 6.7l-2.1 5.4l-2.4 4.1l-3.1 3.6l-4 3.1l-4.1 2.1l-10.8 3.1l-17.6 2.3l-21.7 0.7"/><path d="M376 24l-352 352"/></g></svg>