<svg xmlns="http://www.w3.org/2000/svg" viewBox="0 0 400 400" role="img" aria-label="Chladni resonance figure (mode 2,7)"><g fill="none" stroke="#2E7D46" stroke-width="2.2" stroke-linecap="round" stroke-linejoin="round"><path d="M93.1 344.1l0.9 -15.7l-0.5 -7.3l-1.1 -6.5l-1.6 -5.9l-2.8 -6.8l-6 -10l-1.1 -0.5l-56.9 43.6"/><path d="M162.2 353.2l1.3 -3.4l3.7 -4.4l7.4 -6.3l9.2 -6.7l7.9 -4.9l6.5 -3.2l5.1 -1.5l4.9 -0.3l4.7 1.3l4.5 2.9l4.3 4.4l4.1 6l3.2 6.7l1.8 6.3l0.8 6.2l-0.2 6.1"/><path d="M272.8 367.8l0.2 -8.5l-2.4 -23.4l0.1 -13.4l0.9 -8.4l1.6 -7.1l2.2 -4.5l2.2 -2.2l3.1 -1.4l4.9 -0.5l7.3 0.5l8.3 1.4l11.8 3l22 8.4l8.2 2.1"/><path d="M339.6 341.4l-4.9 0.1l-6.3 1.8l-6.5 3.3l-6.7 4.7l-6.2 5.5l-4.6 5.4l-2.6 4.6l-1.3 4.6"/><path d="M33.1 265.9l15.4 3.2l7 2.4l6 2.8l5.3 3.1l5.8 4.4l8.1 8.4l0.2 1.2l18.9 -14.5l73.1 -56.1l-1.1 -0.4l-5.2 -7.2l-8.5 -13.8l-4.7 -10.4l-2.6 -10.1l-0.4 -8.6l1.8 -8.2l3.8 -6.8l5.2 -5.4l7 -4l7.5 -1.8l8.5 0.3l8.2 2.6l9 5.2l8.8 7.2l11.2 11.8l5.7 6.8l0 1.2l92 -70.6l-1.1 -0.5l-6 -10l-2.8 -6.8l-1.6 -5.9l-1.1 -6.5l-0.5 -7.3l0.9 -15.7"/><path d="M348.7 272.3l-5.9 -1.3l-5.8 -2.4l-5.6 -3.4l-5.6 -4.8l-4.7 -5.5l-3.2 -5.3l-1.7 -5.1l0 -4.9l1.5 -4.6l2.8 -4.5l4.8 -5.5l6.8 -6.4l8.8 -7.1l8 -5.5l5.2 -2.4l3.7 -0.4"/><path d="M42.2 196.8l3.7 -0.4l5.2 -2.4l8 -5.5l8.8 -7.1l6.8 -6.4l4.8 -5.5l2.8 -4.5l1.5 -4.6l0 -4.9l-1.7 -5.1l-3.2 -5.3l-4.7 -5.5l-5.6 -4.8l-5.6 -3.4l-5.8 -2.4l-5.9 -1.3"/><path d="M359.6 189.4l-2.3 -0.7l-3.4 -2l-19.6 -17.8l-6.6 -4.9l-5.7 -3.2l-5.8 -2.3l-5.9 -1l-5 0.5l-5.2 2.4l-3.4 3.6l-3.1 5.7l-2.6 8.2l-1.7 9.5l-0.8 16.9l0.5 8.6l2.2 18.6l-0.9 8.4l-2 5.8l-8 16l-8.1 19.6l-2.6 4.5l-3.4 3.1l-5.1 1.6l-18.6 2.4l-20 4l-7.4 0.7l-8.3 -1.4l-23.2 -8.9l-16.5 -3.9l-9.6 -1.1l-8.5 0l-6.2 1l-5.1 2l-4 3.3l-2.6 4.6l-1.2 5.9l0.4 7.3l1.5 6.3l2.8 7.7l12.7 24.8l1.1 3.8l0 2.4"/><path d="M56.8 86.2l8.2 2.1l22 8.4l11.8 3l8.3 1.4l7.3 0.5l4.9 -0.5l3.1 -1.4l2.2 -2.2l2.2 -4.5l1.6 -7.1l0.9 -8.4l0.1 -13.4l-2.4 -23.4l0.2 -8.5"/><path d="M99.5 28.6l-1.3 4.6l-3.4 5.7l-4.9 5.4l-6.2 5.3l-6.9 4.5l-6.5 3.1l-5 1.3l-4.9 0.1"/><path d="M168.6 37.6l-0.2 6.1l0.8 6.2l1.8 6.3l3.2 6.7l4.1 6l4.3 4.4l4.5 2.9l4.7 1.3l4.9 -0.3l5.1 -1.5l6.5 -3.2l7.9 -4.9l9.2 -6.7l7.4 -6.3l3.7 -4.4l1.3 -3.4"/><path d="M251.6 48.6l0 2.4l1.1 3.8l12.7 24.8l2.8 7.7l1.5 6.3l0.4 7.3l-1.2 5.9l-2.6 4.6l-4 3.3l-5.1 2l-6.2 1l-8.5 0l-9.6 -1.1l-16.5 -3.9l-23.2 -8.9l-8.3 -1.4l-7.4 0.7l-20 4l-18.6 2.4l-5.1 1.6l-3.4 3.1l-2.6 4.5l-8.1 19.6l-8 16l-2 5.8l-0.9 8.4l2.2 18.6l0.5 8.6l-0.8 16.9l-1.7 9.5l-2.6 8.2l-3.1 5.7l-3.4 3.6l-5.2 2.4l-5 0.5l-5.9 -1l-5.8 -2.3l-5.7 -3.2l-6.6 -4.9l-19.6 -17.8l-3.4 -2l-2.3 -0.7"/><path d="M376 65l-56.9 43.6l0.2 1.2l8.1 8.4l5.8 4.4l5.3 3.1l6 2.8l7 2.4l15.4 3.2"/><path d="M209.9 253.9l7.1 1.8l6 0.3l6.3 -1l5.1 -2.1l5.4 -3.6l4.2 -4.5l2.8 -4.6l2 -5.8l0.8 -6l-0.2 -6.1l-1.2 -6.2l-2.1 -6.4l-3.7 -8.1l-5 -8.6l-9.2 -13.4l-1.1 -0.4l-54.2 41.6l0 1.2l5.7 6.8l12.3 12.8l9.9 7.7l9.1 4.6"/></g></svg>