<svg xmlns="http://www.w3.org/2000/svg" viewBox="0 0 400 400" role="img" aria-label="Chladni resonance figure (mode 3,7)"><g fill="none" stroke="#C03A78" stroke-width="2.2" stroke-linecap="round" stroke-linejoin="round"><path d="M89.3 355.5l0.9 -7.5l1.8 -7.5l2 -4.9l3 -4.8l3.3 -3.2l4.5 -2.5l4.6 -1.2l6.4 -0.2l6.2 1l7.4 2.6l7.2 4.2l5.9 4.8l5.5 6.1l4.1 6.6l2.2 6.5l0.2 5.1"/><path d="M187.2 363.2l4.8 -61.5l1.3 -0.4l12.6 0.4l11.4 -0.4l8.9 -1l9 -2.1l7.8 -2.7l8.7 -4.3l7.1 -4.5l8.1 -6.3l1.3 -0.5l82.1 96.1"/><path d="M285.1 370.9l0.2 -7.6l-0.7 -7.6l-1.1 -5.2l-2.2 -5.2l-2.8 -3.7l-4 -3.1l-4.4 -2l-6.2 -1.2l-6.4 0l-7.6 1.5l-7.9 3l-6.6 3.8l-6.3 5.2l-5.1 5.9l-3.2 6.1l-1 4.9"/><path d="M29.1 285.1l7.6 0.2l7.6 -0.7l5.2 -1.1l5.2 -2.2l3.7 -2.8l3.1 -4l2 -4.4l1.2 -6.2l0 -6.4l-1.5 -7.6l-3 -7.9l-3.8 -6.6l-5.2 -6.3l-5.9 -5.1l-6.1 -3.2l-4.9 -1"/><path d="M355.5 310.7l-7.5 -0.9l-7.5 -1.8l-4.9 -2l-4.8 -3l-3.2 -3.3l-2.5 -4.5l-1.2 -4.6l-0.2 -6.4l1 -6.2l2.6 -7.4l4.2 -7.2l4.8 -5.9l6.1 -5.5l6.6 -4.1l6.5 -2.2l5.1 -0.2"/><path d="M36.8 187.2l61.5 4.8l0.6 -1.2l1.5 -12.5l2.2 -11.2l2.5 -8.7l3.4 -8.5l3.9 -7.3l5.6 -7.9l5.6 -6.4l7.5 -7l0.7 -1.2l-82.1 -96.1"/><path d="M363.2 212.8l-61.5 -4.8l-0.4 -1.3l0.4 -12.6l-0.4 -11.4l-1 -8.9l-2.1 -9l-2.7 -7.8l-4.3 -8.7l-4.5 -7.1l-6.3 -8.1l-0.5 -1.3l-78.5 67l1.1 1.4l98.7 7.8l-1.3 11.2l-1.9 11.2l-2.7 9.9l-3.2 8.6l-3.8 7.3l-4.9 7.3l-5.6 6.7l-8.9 8.5l-0.7 1.2l-67 -78.5l-1.4 1.1l-7.8 98.7l-11.2 -1.3l-11.2 -1.9l-9.9 -2.7l-8.6 -3.2l-7.3 -3.8l-7.3 -4.9l-6.7 -5.6l-8.5 -8.9l-1.2 -0.7l-96.1 82.1"/><path d="M44.5 89.3l7.5 0.9l7.5 1.8l4.9 2l4.8 3l3.2 3.3l2.5 4.5l1.2 4.6l0.2 6.4l-1 6.2l-2.6 7.4l-4.2 7.2l-4.8 5.9l-6.1 5.5l-6.6 4.1l-6.5 2.2l-5.1 0.2"/><path d="M370.9 114.9l-7.6 -0.2l-7.6 0.7l-5.2 1.1l-5.2 2.2l-3.7 2.8l-3.1 4l-2 4.4l-1.2 6.2l0 6.4l1.5 7.6l3 7.9l3.8 6.6l5.2 6.3l5.9 5.1l6.1 3.2l4.9 1"/><path d="M114.9 29.1l-0.2 7.6l0.7 7.6l1.1 5.2l2.2 5.2l2.8 3.7l4 3.1l4.4 2l6.2 1.2l6.4 0l7.6 -1.5l7.9 -3l6.6 -3.8l6.3 -5.2l5.1 -5.9l3.2 -6.1l1 -4.9"/><path d="M212.8 36.8l-4.8 61.5l1.2 0.6l12.5 1.5l11.2 2.2l8.7 2.5l8.5 3.4l7.3 3.9l7.9 5.6l6.4 5.6l7 7.5l1.2 0.7l96.1 -82.1"/><path d="M310.7 44.5l-0.9 7.5l-1.8 7.5l-2 4.9l-3 4.8l-3.3 3.2l-4.5 2.5l-4.6 1.2l-6.4 0.2l-6.2 -1l-7.4 -2.6l-7.2 -4.2l-5.9 -4.8l-5.5 -6.1l-4.1 -6.6l-2.2 -6.5l-0.2 -5.1"/><path d="M120.1 268.2l81.3 -69.4l-1.2 -1.3l7.8 -98.7l-11.4 -0.5l-11.3 0.2l-10.2 1l-9 1.9l-7.8 2.6l-8 3.7l-7.5 4.5l-9.7 7.4l-1.3 0.5l67 78.5l-1.3 1.2l-98.7 -7.8l-0.5 11.4l0.2 11.3l1 10.2l1.9 9l2.6 7.8l3.7 8l4.5 7.5l7.4 9.7l0.5 1.3"/></g></svg>